<?xml version='1.0' encoding='utf-8'?>
<!-- Generator: Adobe Illustrator 25.2.1, SVG Export Plug-In . SVG Version: 6.00 Build 0)  -->
<svg xmlns="http://www.w3.org/2000/svg" enable-background="new 0 0 50.9358 65.6419" xml:space="preserve" gorn="0" version="1.1" xmlns:xml="http://www.w3.org/XML/1998/namespace" height="0.911693in" id="Layer_1"  y="0px" width="0.707442in" x="0px" viewBox="0 0 50.9358 65.6419">
    <desc>
        <referenceFile>QT Py RP2040 rev B_breadboard.svg</referenceFile>
    </desc>
    <g >
        <path  d="M49.2598,18.1863c0-0.7828,0.6345-1.4174,1.4173-1.4174v-4.3654c-0.7828,0-1.4173-0.6345-1.4173-1.4173c0-0.7629,0.6042-1.3804,1.3595-1.4114c-0.431-3.5646-3.4614-6.3286-7.1422-6.3286h-36c-3.6808,0-6.7112,2.764-7.1422,6.3286c0.7553,0.031,1.3596,0.6485,1.3596,1.4114c0,0.7828-0.6346,1.4173-1.4174,1.4173v4.3654c0.7828,0,1.4174,0.6346,1.4174,1.4174s-0.6346,1.4173-1.4174,1.4173v4.3654c0.7828,0,1.4174,0.6346,1.4174,1.4174c0,0.7827-0.6346,1.4173-1.4174,1.4173v4.3654c0.7828,0,1.4174,0.6346,1.4174,1.4173c0,0.7828-0.6346,1.4174-1.4174,1.4174v4.3654c0.7828,0,1.4174,0.6345,1.4174,1.4173s-0.6346,1.4174-1.4174,1.4174v4.3654c0.7828,0,1.4174,0.6345,1.4174,1.4173s-0.6346,1.4173-1.4174,1.4173v4.3654c0.7828,0,1.4174,0.6346,1.4174,1.4174c0,0.7629-0.6042,1.3804-1.3596,1.4114c0.431,3.5646,3.4614,6.3286,7.1422,6.3286h36c3.6808,0,6.7112-2.764,7.1422-6.3286c-0.7553-0.031-1.3595-0.6485-1.3595-1.4114c0-0.7828,0.6345-1.4174,1.4173-1.4174v-4.3654c-0.7828,0-1.4173-0.6345-1.4173-1.4173s0.6345-1.4173,1.4173-1.4173v-4.3654c-0.7828,0-1.4173-0.6346-1.4173-1.4174s0.6345-1.4173,1.4173-1.4173v-4.3654c-0.7828,0-1.4173-0.6346-1.4173-1.4174c0-0.7827,0.6345-1.4173,1.4173-1.4173v-4.3654c-0.7828,0-1.4173-0.6346-1.4173-1.4173c0-0.7828,0.6345-1.4174,1.4173-1.4174v-4.3654C49.8944,19.6036,49.2598,18.9691,49.2598,18.1863z M3.8772,55.6036c-0.7828,0-1.4174-0.6345-1.4174-1.4173s0.6346-1.4174,1.4174-1.4174s1.4173,0.6346,1.4173,1.4174S4.6599,55.6036,3.8772,55.6036z M3.8772,48.4036c-0.7828,0-1.4174-0.6345-1.4174-1.4173s0.6346-1.4173,1.4174-1.4173s1.4173,0.6345,1.4173,1.4173S4.6599,48.4036,3.8772,48.4036z M3.8772,41.2036c-0.7828,0-1.4174-0.6346-1.4174-1.4174s0.6346-1.4173,1.4174-1.4173s1.4173,0.6345,1.4173,1.4173S4.6599,41.2036,3.8772,41.2036z M3.8772,34.0036c-0.7828,0-1.4174-0.6346-1.4174-1.4174c0-0.7827,0.6346-1.4173,1.4174-1.4173s1.4173,0.6346,1.4173,1.4173C5.2944,33.369,4.6599,34.0036,3.8772,34.0036z M3.8772,26.8036c-0.7828,0-1.4174-0.6346-1.4174-1.4173c0-0.7828,0.6346-1.4174,1.4174-1.4174s1.4173,0.6346,1.4173,1.4174C5.2944,26.169,4.6599,26.8036,3.8772,26.8036z M3.8772,19.6036c-0.7828,0-1.4174-0.6345-1.4174-1.4173s0.6346-1.4174,1.4174-1.4174s1.4173,0.6346,1.4173,1.4174S4.6599,19.6036,3.8772,19.6036z M3.8772,12.4036c-0.7828,0-1.4174-0.6345-1.4174-1.4173S3.0944,9.569,3.8772,9.569s1.4173,0.6345,1.4173,1.4173S4.6599,12.4036,3.8772,12.4036z M14.0818,19.5529c-0.001,0.4697-0.3826,0.8496-0.8522,0.8486s-0.8495-0.3826-0.8485-0.8522c-0.0001-0.0013-0.0001-0.0025,0-0.0037c0.001-0.4697,0.3826-0.8495,0.8522-0.8486c0.4697,0.001,0.8495,0.3826,0.8485,0.8523V19.5529z M14.0818,7.704c-0.001,0.4697-0.3826,0.8495-0.8522,0.8485C12.7599,8.5516,12.38,8.17,12.3811,7.7003c-0.0001-0.0012-0.0001-0.0024,0-0.0037c0.001-0.4697,0.3826-0.8495,0.8522-0.8485s0.8495,0.3826,0.8485,0.8522V7.704z M18.2063,18.1359c-0.0011,0.5088-0.4144,0.9203-0.9233,0.9193c-0.5088-0.0011-0.9203-0.4144-0.9193-0.9232v-0.004c0.0011-0.5088,0.4144-0.9203,0.9233-0.9193c0.5088,0.0011,0.9203,0.4144,0.9193,0.9233V18.1359z M34.5905,18.1348c-0.0009,0.5088-0.4139,0.9206-0.9227,0.9198c-0.5089-0.0009-0.9207-0.4139-0.9198-0.9227v-0.003c0.0008-0.5088,0.4139-0.9206,0.9227-0.9198c0.5088,0.0009,0.9206,0.4139,0.9198,0.9228V18.1348z M38.5732,19.5533c-0.0011,0.4697-0.3828,0.8495-0.8524,0.8483c-0.4697-0.0012-0.8495-0.3828-0.8483-0.8524V19.545c0.0011-0.4697,0.3828-0.8495,0.8524-0.8483s0.8495,0.3828,0.8483,0.8525V19.5533z M38.5732,7.7045c-0.0011,0.4697-0.3828,0.8494-0.8524,0.8483c-0.4697-0.0012-0.8495-0.3828-0.8483-0.8525V7.6962c0.0011-0.4697,0.3828-0.8495,0.8524-0.8483c0.4697,0.0011,0.8495,0.3828,0.8483,0.8524V7.7045z M47.0772,55.6036c-0.7828,0-1.4174-0.6345-1.4174-1.4173s0.6346-1.4174,1.4174-1.4174s1.4173,0.6346,1.4173,1.4174S47.8599,55.6036,47.0772,55.6036z M47.0772,48.4036c-0.7828,0-1.4174-0.6345-1.4174-1.4173s0.6346-1.4173,1.4174-1.4173s1.4173,0.6345,1.4173,1.4173S47.8599,48.4036,47.0772,48.4036z M47.0772,41.2036c-0.7828,0-1.4174-0.6346-1.4174-1.4174s0.6346-1.4173,1.4174-1.4173s1.4173,0.6345,1.4173,1.4173S47.8599,41.2036,47.0772,41.2036z M47.0772,34.0036c-0.7828,0-1.4174-0.6346-1.4174-1.4174c0-0.7827,0.6346-1.4173,1.4174-1.4173s1.4173,0.6346,1.4173,1.4173C48.4945,33.369,47.8599,34.0036,47.0772,34.0036z M47.0772,26.8036c-0.7828,0-1.4174-0.6346-1.4174-1.4173c0-0.7828,0.6346-1.4174,1.4174-1.4174s1.4173,0.6346,1.4173,1.4174C48.4945,26.169,47.8599,26.8036,47.0772,26.8036z M47.0772,19.6036c-0.7828,0-1.4174-0.6345-1.4174-1.4173s0.6346-1.4174,1.4174-1.4174s1.4173,0.6346,1.4173,1.4174S47.8599,19.6036,47.0772,19.6036z M47.0772,12.4036c-0.7828,0-1.4174-0.6345-1.4174-1.4173s0.6346-1.4173,1.4174-1.4173s1.4173,0.6345,1.4173,1.4173S47.8599,12.4036,47.0772,12.4036z"/>
        <g >
            <path fill="#FFFFFF"  d="M37.2123,37.8835v-2.0879l-0.4238,0.3193l-0.2842-0.4961l0.7764-0.5674h0.5596v2.832H37.2123z"/>
            <path fill="#FFFFFF"  d="M38.6722,37.8835v-2.0879l-0.4238,0.3193l-0.2842-0.4961l0.7764-0.5674h0.5596v2.832H38.6722z"/>
            <path fill="#FFFFFF"  d="M36.4388,41.0837l-0.623-1.7246h-0.0117l0.0156,1.7246h-0.5439v-2.832h0.6689l0.6191,1.748h0.0117l-0.0117-1.748h0.5244v2.832H36.4388z"/>
            <path fill="#FFFFFF"  d="M37.3119,41.0837v-2.832h1.2998v0.5635h-0.7188v0.5566h0.6621v0.5273h-0.6621v0.6084h0.7646v0.5762H37.3119z"/>
            <path fill="#FFFFFF"  d="M40.7162,39.6599c0,0.2236-0.0244,0.4287-0.0723,0.6133c-0.0479,0.1855-0.1162,0.3438-0.2051,0.4746c-0.0889,0.1308-0.1973,0.2314-0.3252,0.3037s-0.2715,0.1084-0.4307,0.1084c-0.1602,0-0.3037-0.0361-0.4316-0.1084s-0.2363-0.1729-0.3252-0.3037c-0.0879-0.1309-0.1572-0.2891-0.2051-0.4746c-0.0479-0.1846-0.0723-0.3896-0.0723-0.6133c0-0.2246,0.0234-0.4277,0.0703-0.6104s0.1152-0.3389,0.2031-0.4678c0.0889-0.1299,0.1973-0.2295,0.3252-0.2998c0.1279-0.0713,0.2734-0.1064,0.4355-0.1064c0.1592,0,0.3027,0.0352,0.4307,0.1064c0.1279,0.0703,0.2363,0.1699,0.3252,0.2998c0.0889,0.1289,0.1572,0.2852,0.2051,0.4678S40.7162,39.4353,40.7162,39.6599z M40.0931,39.6599c0-0.123-0.0088-0.2373-0.0264-0.3428c-0.0176-0.1045-0.0439-0.1963-0.0781-0.2734s-0.0771-0.1387-0.127-0.1826c-0.0508-0.0439-0.1104-0.0654-0.1787-0.0654s-0.1289,0.0215-0.1807,0.0654s-0.0947,0.1055-0.1289,0.1826s-0.0596,0.1689-0.0762,0.2734c-0.0166,0.1055-0.0254,0.2197-0.0254,0.3428c0,0.1221,0.0088,0.2373,0.0254,0.3438s0.042,0.1982,0.0762,0.2754c0.0342,0.0781,0.0771,0.1387,0.1289,0.1846c0.0518,0.0449,0.1123,0.0684,0.1807,0.0684s0.1279-0.0234,0.1787-0.0684c0.0498-0.0459,0.0928-0.1064,0.127-0.1846c0.0342-0.0771,0.0605-0.1689,0.0781-0.2754S40.0931,39.7819,40.0931,39.6599z"/>
        </g>
        <g >
            <path fill="#FFFFFF"  d="M42.1547,61.0983l-0.3779-1.1279h-0.1875v1.1279H40.973v-2.832h0.9062c0.2734,0,0.4863,0.0713,0.6387,0.2139c0.1514,0.1426,0.2275,0.3555,0.2275,0.6377c0,0.1045-0.0127,0.1973-0.0361,0.2803c-0.0244,0.083-0.0557,0.1533-0.0938,0.2119c-0.0391,0.0586-0.082,0.1064-0.1299,0.1436c-0.0479,0.0381-0.0938,0.0645-0.1396,0.0801l0.4834,1.2646H42.1547z M42.1176,59.154c0-0.0723-0.0107-0.1309-0.0303-0.1758c-0.0205-0.0459-0.0459-0.0811-0.0781-0.1084c-0.0322-0.0264-0.0674-0.0439-0.1065-0.0537c-0.0381-0.0098-0.0762-0.0137-0.1133-0.0137h-0.2002v0.7158h0.1875c0.0908,0,0.1699-0.0283,0.2383-0.0859S42.1176,59.2819,42.1176,59.154z"/>
            <path fill="#FFFFFF"  d="M44.101,58.9421c-0.0479-0.0557-0.1035-0.0996-0.168-0.1299c-0.0635-0.0303-0.1309-0.0459-0.2002-0.0459c-0.0713,0-0.1367,0.0225-0.1934,0.0684c-0.0576,0.0449-0.0859,0.1201-0.0859,0.2236c0,0.0889,0.0293,0.1572,0.0879,0.207c0.0586,0.0488,0.1455,0.1035,0.2598,0.1621c0.0645,0.0322,0.1318,0.0703,0.2031,0.1143c0.0713,0.0439,0.1367,0.0977,0.1953,0.1621c0.0596,0.0645,0.1084,0.1406,0.1475,0.2305c0.0391,0.0889,0.0576,0.1953,0.0576,0.3184c0,0.1523-0.0234,0.2861-0.0723,0.4023c-0.0479,0.1162-0.1133,0.2129-0.1953,0.2891s-0.1758,0.1328-0.2832,0.1719s-0.2178,0.0586-0.333,0.0586c-0.1709,0-0.3262-0.0322-0.4658-0.0967c-0.1396-0.0635-0.2529-0.1387-0.3379-0.2236l0.3281-0.4805c0.0615,0.0645,0.1318,0.1162,0.2119,0.1543c0.0801,0.0391,0.1611,0.0576,0.2441,0.0576c0.0771,0,0.1426-0.0244,0.1953-0.0752c0.0537-0.0508,0.0801-0.1221,0.0801-0.2119c0-0.0938-0.0312-0.168-0.0957-0.2227c-0.0635-0.0547-0.1572-0.1123-0.2803-0.1738c-0.0771-0.0371-0.1494-0.0781-0.2178-0.124c-0.0674-0.0449-0.1279-0.0996-0.1797-0.1641c-0.0518-0.0635-0.0928-0.1387-0.1221-0.2236c-0.0293-0.0859-0.0439-0.1865-0.0439-0.3047c0-0.1572,0.0254-0.292,0.0781-0.4053c0.0518-0.1133,0.1201-0.2061,0.2041-0.2783s0.1768-0.125,0.2793-0.1602c0.1025-0.0342,0.2061-0.0518,0.3105-0.0518c0.1543,0,0.293,0.0254,0.416,0.0752c0.1221,0.0508,0.2246,0.1191,0.3076,0.207L44.101,58.9421z"/>
            <path fill="#FFFFFF"  d="M45.5697,58.8103v2.2881h-0.6279v-2.2881h-0.5195v-0.5439h1.668v0.5439H45.5697z"/>
        </g>
        <g >
            <path fill="#FFFFFF"  d="M12.9652,44.8112c0,0.1523-0.0225,0.2793-0.0674,0.3818c-0.0439,0.1025-0.1025,0.1855-0.1738,0.248c-0.0723,0.0625-0.1533,0.1084-0.2432,0.1357c-0.0898,0.0283-0.1807,0.042-0.2715,0.042h-0.8467v-2.832h0.7637c0.0791,0,0.1631,0.0098,0.252,0.0283s0.1699,0.0537,0.2432,0.1055c0.0732,0.0527,0.1338,0.127,0.1836,0.2227c0.0488,0.0957,0.0732,0.2197,0.0732,0.3721c0,0.168-0.0303,0.3018-0.0918,0.4014c-0.0605,0.1006-0.1357,0.1729-0.2246,0.2188v0.0078c0.0479,0.0137,0.0957,0.0371,0.1436,0.0723c0.0479,0.0342,0.0918,0.0791,0.1299,0.1338s0.0693,0.1201,0.0938,0.1982C12.9525,44.6247,12.9652,44.7126,12.9652,44.8112z M12.3705,43.6169c0-0.1104-0.0273-0.1875-0.082-0.2334c-0.0557-0.0459-0.1201-0.0684-0.1943-0.0684h-0.1943v0.6162h0.1973c0.0703,0,0.1328-0.0244,0.1895-0.0723C12.3431,43.8103,12.3705,43.7302,12.3705,43.6169z M12.4174,44.7536c0-0.0645-0.0088-0.1191-0.0264-0.1631c-0.0186-0.0449-0.042-0.0811-0.0723-0.1094c-0.0303-0.0273-0.0635-0.0488-0.1006-0.0615c-0.0371-0.0137-0.0742-0.0205-0.1104-0.0205h-0.208v0.6924h0.2158c0.084,0,0.1553-0.0283,0.2139-0.085S12.4174,44.8659,12.4174,44.7536z"/>
            <path fill="#FFFFFF"  d="M14.9613,44.195c0,0.2236-0.0234,0.4287-0.0684,0.6143c-0.0459,0.1855-0.1104,0.3428-0.1943,0.4736s-0.1865,0.2324-0.3086,0.3037c-0.1211,0.0723-0.2568,0.1084-0.4082,0.1084s-0.2871-0.0361-0.4082-0.1084c-0.1211-0.0713-0.2246-0.1729-0.3086-0.3037s-0.1484-0.2881-0.1943-0.4736c-0.0449-0.1855-0.0684-0.3906-0.0684-0.6143s0.0225-0.4268,0.0674-0.6104c0.0439-0.1826,0.1084-0.3379,0.1924-0.4678c0.084-0.1289,0.1865-0.2295,0.3076-0.2998s0.2588-0.1064,0.4121-0.1064c0.1514,0,0.2871,0.0361,0.4082,0.1064c0.1221,0.0703,0.2246,0.1709,0.3086,0.2998c0.084,0.1299,0.1484,0.2852,0.1943,0.4678C14.9379,43.7683,14.9613,43.9714,14.9613,44.195z M14.3705,44.195c0-0.1221-0.0078-0.2363-0.0254-0.3418c-0.0166-0.1055-0.041-0.1963-0.0732-0.2744c-0.0322-0.0771-0.0732-0.1377-0.1211-0.1816s-0.1045-0.0664-0.1689-0.0664s-0.1221,0.0225-0.1709,0.0664s-0.0898,0.1045-0.1221,0.1816c-0.0332,0.0781-0.0566,0.169-0.0723,0.2744c-0.0156,0.1055-0.0234,0.2197-0.0234,0.3418c0,0.123,0.0078,0.2373,0.0234,0.3438c0.0156,0.1074,0.0391,0.1992,0.0723,0.2764c0.0322,0.0771,0.0732,0.1387,0.1221,0.1836c0.0488,0.0459,0.1064,0.0684,0.1709,0.0684s0.1211-0.0225,0.1689-0.0684c0.0479-0.0449,0.0889-0.1064,0.1211-0.1836s0.0566-0.1689,0.0732-0.2764C14.3627,44.4323,14.3705,44.3181,14.3705,44.195z"/>
            <path fill="#FFFFFF"  d="M16.9672,44.195c0,0.2236-0.0234,0.4287-0.0684,0.6143c-0.0459,0.1855-0.1104,0.3428-0.1943,0.4736s-0.1865,0.2324-0.3086,0.3037c-0.1211,0.0723-0.2568,0.1084-0.4082,0.1084c-0.1514,0-0.2871-0.0361-0.4082-0.1084c-0.1211-0.0713-0.2246-0.1729-0.3086-0.3037s-0.1484-0.2881-0.1943-0.4736c-0.0449-0.1855-0.0684-0.3906-0.0684-0.6143s0.0225-0.4268,0.0674-0.6104c0.0439-0.1826,0.1084-0.3379,0.1924-0.4678c0.084-0.1289,0.1865-0.2295,0.3076-0.2998s0.2588-0.1064,0.4121-0.1064c0.1514,0,0.2871,0.0361,0.4082,0.1064c0.1221,0.0703,0.2246,0.1709,0.3086,0.2998c0.084,0.1299,0.1484,0.2852,0.1943,0.4678C16.9437,43.7683,16.9672,43.9714,16.9672,44.195z M16.3763,44.195c0-0.1221-0.0078-0.2363-0.0254-0.3418c-0.0166-0.1055-0.041-0.1963-0.0732-0.2744c-0.0322-0.0771-0.0732-0.1377-0.1211-0.1816s-0.1045-0.0664-0.1689-0.0664c-0.0645,0-0.1221,0.0225-0.1709,0.0664s-0.0898,0.1045-0.1221,0.1816c-0.0332,0.0781-0.0566,0.169-0.0723,0.2744c-0.0156,0.1055-0.0234,0.2197-0.0234,0.3418c0,0.123,0.0078,0.2373,0.0234,0.3438c0.0156,0.1074,0.0391,0.1992,0.0723,0.2764c0.0322,0.0771,0.0732,0.1387,0.1221,0.1836c0.0488,0.0459,0.1064,0.0684,0.1709,0.0684c0.0645,0,0.1211-0.0225,0.1689-0.0684c0.0479-0.0449,0.0889-0.1064,0.1211-0.1836c0.0322-0.0771,0.0566-0.1689,0.0732-0.2764C16.3685,44.4323,16.3763,44.3181,16.3763,44.195z"/>
            <path fill="#FFFFFF"  d="M17.9213,43.3308v2.2881h-0.5645v-2.2881h-0.4688v-0.5439h1.502v0.5439H17.9213z"/>
        </g>
        <g >
            <path fill="#FFFFFF"  d="M4.2191,60.3864v-2.832h0.6445v2.832H4.2191z"/>
            <path fill="#FFFFFF"  d="M6.767,58.3347c0,0.0928-0.0127,0.1797-0.0361,0.2598c-0.0244,0.0801-0.0566,0.1553-0.0967,0.2275s-0.085,0.1416-0.1357,0.208s-0.1025,0.1309-0.1562,0.1924l-0.5273,0.6123h0.916v0.5518H5.0551v-0.5684l0.8594-0.9883c0.0693-0.0801,0.124-0.1611,0.1641-0.2451c0.04-0.085,0.0605-0.165,0.0605-0.2422c0-0.083-0.0195-0.1533-0.0586-0.2119c-0.0381-0.0586-0.0996-0.0889-0.1816-0.0889c-0.0771,0-0.1416,0.0322-0.1924,0.0947s-0.0811,0.1533-0.0918,0.2734L5.015,58.3542c0.0312-0.2881,0.1299-0.5029,0.2939-0.6465c0.1641-0.1426,0.3672-0.2139,0.6094-0.2139c0.1309,0,0.248,0.0205,0.3525,0.0605c0.1035,0.04,0.1924,0.0957,0.2656,0.168s0.1299,0.1602,0.1699,0.2637C6.7465,58.0905,6.767,58.2058,6.767,58.3347z"/>
            <path fill="#FFFFFF"  d="M8.4154,60.3522c-0.125,0.0732-0.2852,0.1104-0.4795,0.1104c-0.166,0-0.3154-0.0371-0.4502-0.1104s-0.25-0.1758-0.3457-0.3076c-0.0967-0.1328-0.1709-0.29-0.2246-0.4727c-0.0527-0.1826-0.0801-0.3828-0.0801-0.6016c0-0.2217,0.0273-0.4238,0.0801-0.6084c0.0537-0.1836,0.1279-0.3408,0.2246-0.4717c0.0957-0.1309,0.2109-0.2324,0.3457-0.3037c0.1348-0.0723,0.2842-0.1084,0.4502-0.1084c0.1895,0,0.3467,0.0342,0.4736,0.1016c0.127,0.0684,0.2285,0.1533,0.3057,0.2549l-0.3438,0.4639c-0.0479-0.0645-0.1016-0.1152-0.1621-0.1523c-0.0596-0.0371-0.1348-0.0557-0.2256-0.0557c-0.0859,0-0.1592,0.0225-0.2227,0.0674c-0.0625,0.0459-0.1152,0.1074-0.1592,0.1865c-0.0439,0.0781-0.0771,0.1719-0.0986,0.2793c-0.0215,0.1084-0.0312,0.2236-0.0312,0.3467c0,0.1221,0.0098,0.2373,0.0312,0.3438s0.0547,0.2002,0.0986,0.2803s0.0977,0.1426,0.1621,0.1875c0.0635,0.0459,0.1377,0.0684,0.2236,0.0684c0.085,0,0.1602-0.0215,0.2236-0.0645c0.0645-0.042,0.1152-0.0928,0.1523-0.1514l0.3555,0.4434C8.642,60.1872,8.5414,60.279,8.4154,60.3522z"/>
            <path fill="#FFFFFF"  d="M9.2914,60.3864v-2.0879l-0.4238,0.3193l-0.2842-0.4961l0.7764-0.5674h0.5596v2.832H9.2914z"/>
        </g>
        <g >
            <path fill="#FFFFFF"  d="M41.6107,5.2907c0.0791-0.0522,0.1182-0.1401,0.1182-0.2637c0-0.0659-0.0107-0.1191-0.0312-0.1597c-0.0215-0.0405-0.0498-0.0723-0.0869-0.0957c-0.0361-0.0229-0.0771-0.0396-0.1221-0.0493c-0.0449-0.0093-0.0908-0.0142-0.1357-0.0142h-0.2607v0.6611h0.2607C41.4467,5.3693,41.5326,5.343,41.6107,5.2907z"/>
            <path fill="#FFFFFF"  d="M50.2786,8.1503c-0.9599-2.8464-3.6431-4.899-6.8134-4.899h-36c-3.1703,0-5.8535,2.0526-6.8134,4.899h11.861c-0.0831-0.1313-0.1436-0.278-0.1436-0.4449c0-0.4697,0.3807-0.8504,0.8504-0.8504s0.8504,0.3807,0.8504,0.8504c0,0.1669-0.0605,0.3135-0.1436,0.4449h23.0778c-0.0831-0.1313-0.1436-0.278-0.1436-0.4449c0-0.4697,0.3807-0.8504,0.8504-0.8504s0.8504,0.3807,0.8504,0.8504c0,0.1669-0.0605,0.3135-0.1436,0.4449H50.2786z M8.7811,7.7414H6.495c-0.292,0-0.5605-0.0454-0.8037-0.1362c-0.2441-0.0908-0.4531-0.2251-0.627-0.4033c-0.1738-0.1777-0.3096-0.397-0.4072-0.6582C4.5604,6.2829,4.5116,5.9821,4.5116,5.6418c0-0.313,0.0518-0.6001,0.1562-0.8613c0.1045-0.2607,0.248-0.4854,0.4307-0.6729s0.3994-0.3325,0.6504-0.4351c0.25-0.1021,0.5215-0.1533,0.8135-0.1533c0.293,0,0.5625,0.0513,0.8096,0.1533c0.2471,0.1025,0.46,0.2446,0.6396,0.4263C8.1903,4.281,8.3309,4.4992,8.4315,4.7546c0.1006,0.2549,0.1514,0.5332,0.1514,0.835c0,0.1162-0.0117,0.23-0.0342,0.3423S8.4969,6.1472,8.4598,6.2419c-0.0361,0.0952-0.0781,0.1802-0.125,0.2554C8.288,6.5729,8.2421,6.6315,8.1971,6.674v0.0234l0.584-0.0405V7.7414z M11.6835,4.801h-0.9082v2.9404H9.5321V4.801H8.6239V3.635h3.0596V4.801z M44.2123,4.2961l0.4014,1.1484l0.4023-1.1484h1.3359l-1.1797,2.2388v1.2065h-1.2061V6.5349l-1.1221-2.2388H44.2123z M39.8549,3.635h1.5869c0.1875,0,0.3721,0.0225,0.5527,0.0669c0.1816,0.0444,0.3428,0.1196,0.4854,0.2261c0.1436,0.1064,0.2578,0.2476,0.3447,0.4233c0.0869,0.1763,0.1309,0.3975,0.1309,0.6641c0,0.2554-0.043,0.4717-0.1279,0.6499c-0.085,0.1777-0.1982,0.3228-0.3398,0.4346c-0.1406,0.1123-0.3027,0.1934-0.4854,0.2437s-0.3691,0.0757-0.5605,0.0757h-0.3496v1.3223h-1.2373V3.635z"/>
            <path fill="#FFFFFF"  d="M7.0848,5.0241C7.0184,4.9489,6.9413,4.8898,6.8524,4.8474s-0.1855-0.064-0.29-0.064c-0.1035,0-0.2012,0.0215-0.292,0.064S6.1024,4.9489,6.038,5.0241s-0.1143,0.168-0.1514,0.2783c-0.0361,0.1104-0.0547,0.231-0.0547,0.3628c0,0.1353,0.0186,0.2588,0.0547,0.3711c0.0371,0.1123,0.0869,0.2085,0.1514,0.29c0.0645,0.0811,0.1416,0.144,0.2324,0.1885s0.1885,0.0664,0.292,0.0664c0.1045,0,0.2012-0.022,0.29-0.0664s0.166-0.1074,0.2324-0.1885c0.0664-0.0815,0.1172-0.1777,0.1543-0.29C7.2753,5.924,7.2938,5.8005,7.2938,5.6652c0-0.1318-0.0186-0.2524-0.0547-0.3628C7.202,5.1921,7.1512,5.0993,7.0848,5.0241z"/>
        </g>
        <path fill="#FFFFFF"  d="M44.3148,54.8171l-1.2969,0.4355v0.2158h1.2969v0.708H41.058v-1.042c0-0.3145,0.082-0.5596,0.2461-0.7344c0.1641-0.1738,0.4092-0.2607,0.7344-0.2607c0.1191,0,0.2266,0.0137,0.3213,0.041c0.0957,0.0273,0.1768,0.0635,0.2441,0.1074c0.0674,0.0449,0.123,0.0938,0.166,0.1494c0.043,0.0547,0.0732,0.1084,0.0918,0.1602l1.4531-0.5547V54.8171z M42.0795,54.861c-0.083,0-0.1504,0.0117-0.2021,0.0342c-0.0527,0.0234-0.0938,0.0537-0.124,0.0898c-0.0312,0.0371-0.0518,0.0781-0.0625,0.1221c-0.0107,0.0449-0.0166,0.0879-0.0166,0.1309v0.2305h0.8242v-0.2168c0-0.1035-0.0332-0.1953-0.0996-0.2734C42.3334,54.9001,42.2269,54.861,42.0795,54.861z"/>
        <path fill="#FFFFFF"  d="M44.3148,52.4011l-1.0762,0.4502l1.0762,0.4463v0.7686l-1.7061-0.8008l-1.5508,0.7363v-0.7686l0.9893-0.4004l-0.9893-0.4043v-0.7549l1.5459,0.7412l1.7109-0.8096V52.4011z"/>
        <g >
            <path fill="#FFFFFF"  d="M43.5111,30.488c-0.0771-0.04-0.1689-0.0703-0.2764-0.0908c-0.1064-0.0205-0.2207-0.0303-0.3438-0.0303c-0.1221,0-0.2363,0.0098-0.3418,0.0303s-0.1963,0.0508-0.2744,0.0908c-0.0771,0.0391-0.1377,0.0879-0.1816,0.1475c-0.0439,0.0586-0.0664,0.127-0.0664,0.2061s0.0225,0.1494,0.0664,0.209c0.0439,0.0605,0.1045,0.1104,0.1816,0.1494c0.0781,0.04,0.1689,0.0693,0.2744,0.0889c0.1055,0.0186,0.2197,0.0283,0.3418,0.0283c0.123,0,0.2373-0.0098,0.3438-0.0283c0.1074-0.0195,0.1992-0.0488,0.2764-0.0889c0.0771-0.0391,0.1387-0.0889,0.1836-0.1494c0.0459-0.0596,0.0684-0.1299,0.0684-0.209s-0.0225-0.1475-0.0684-0.2061C43.6498,30.5759,43.5883,30.5271,43.5111,30.488z"/>
            <path fill="#FFFFFF"  d="M50.6652,31.174v-2.2037h-8.8225c-0.4697,0-0.8504,0.3807-0.8504,0.8504v19.9408c0,0.4697,0.3807,0.8504,0.8504,0.8504h8.8225v-2.2033c-0.7828,0-1.4174-0.6346-1.4174-1.4173c0-0.7828,0.6346-1.4174,1.4174-1.4174v-4.3654c-0.7828,0-1.4174-0.6345-1.4174-1.4173s0.6346-1.4174,1.4174-1.4174v-4.3654c-0.7828,0-1.4174-0.6345-1.4174-1.4173S49.8824,31.174,50.6652,31.174z M44.2953,49.6101c-0.0645,0.1543-0.1387,0.2783-0.2246,0.3721l-0.4795-0.3613c0.0635-0.0674,0.1152-0.1445,0.1543-0.2324c0.0381-0.0879,0.0576-0.1777,0.0576-0.2686c0-0.085-0.0254-0.1572-0.0762-0.2158c-0.0508-0.0586-0.1211-0.0879-0.2119-0.0879c-0.0938,0-0.167,0.0352-0.2217,0.1055s-0.1133,0.1729-0.1738,0.3076c-0.0381,0.0859-0.0791,0.165-0.124,0.2402c-0.0459,0.0752-0.1006,0.1406-0.1641,0.1982c-0.0645,0.0566-0.1387,0.1016-0.2246,0.1338c-0.085,0.0322-0.1865,0.0488-0.3037,0.0488c-0.1572,0-0.293-0.0293-0.4062-0.0859c-0.1133-0.0576-0.2061-0.1318-0.2773-0.2246c-0.0723-0.0918-0.126-0.1953-0.1602-0.3076c-0.0352-0.1133-0.0527-0.2266-0.0527-0.3408c0-0.1709,0.0254-0.3232,0.0762-0.458c0.0498-0.1348,0.1191-0.248,0.2061-0.3389l0.4707,0.3652c-0.0566,0.0527-0.0996,0.1143-0.1309,0.1846c-0.0303,0.0703-0.0459,0.1436-0.0459,0.2207c0,0.0791,0.0234,0.1494,0.0684,0.2129c0.0459,0.0635,0.1201,0.0947,0.2246,0.0947c0.0879,0,0.1572-0.0322,0.2061-0.0967c0.0498-0.0645,0.1035-0.1602,0.1621-0.2861c0.0322-0.0713,0.0703-0.1455,0.1143-0.2236s0.0986-0.1504,0.1621-0.2148c0.0645-0.0654,0.1416-0.1191,0.2305-0.1621c0.0898-0.042,0.1963-0.0635,0.3184-0.0635c0.1523,0,0.2871,0.0264,0.4033,0.0791c0.1162,0.0537,0.2119,0.125,0.2881,0.2148s0.1338,0.1943,0.1729,0.3125c0.0381,0.1172,0.0576,0.2393,0.0576,0.3652C44.391,49.2858,44.3588,49.4567,44.2953,49.6101z M44.2806,47.3347c-0.0732,0.1475-0.1758,0.2744-0.3076,0.3799c-0.1318,0.1064-0.2891,0.1885-0.4717,0.2471s-0.3838,0.0879-0.6025,0.0879c-0.2207,0-0.4238-0.0293-0.6074-0.0879c-0.1846-0.0586-0.3418-0.1406-0.4727-0.2471c-0.1299-0.1055-0.2314-0.2324-0.3037-0.3799c-0.0723-0.1484-0.1084-0.3135-0.1084-0.4951c0-0.208,0.0342-0.3818,0.1025-0.5215s0.1523-0.252,0.2539-0.3369l0.4639,0.3789c-0.0635,0.0527-0.1143,0.1123-0.1523,0.1777c-0.0371,0.0664-0.0557,0.1494-0.0557,0.249c0,0.0938,0.0225,0.1748,0.0684,0.2441c0.0449,0.0684,0.1074,0.127,0.1855,0.1758c0.0791,0.0488,0.1719,0.084,0.2803,0.1074s0.2236,0.0352,0.3457,0.0352c0.123,0,0.2373-0.0117,0.3447-0.0352c0.1064-0.0234,0.1992-0.0586,0.2793-0.1074s0.1426-0.1074,0.1885-0.1777c0.0449-0.0713,0.0674-0.1533,0.0674-0.2471s-0.0205-0.1758-0.0635-0.2461s-0.0938-0.126-0.1523-0.167l0.4443-0.3916c0.1094,0.085,0.2002,0.1963,0.2734,0.334c0.0742,0.1377,0.1104,0.3145,0.1104,0.5283C44.391,47.0212,44.3549,47.1862,44.2806,47.3347z M41.4828,44.5065v-0.7871l1.2959,0.8008l1.5361-0.8496v0.8145l-1.3154,0.6641v0.0137h1.3154v0.708h-2.832v-0.708h1.1807v-0.0137L41.4828,44.5065z M41.4828,39.6862v-0.9414h2.832v0.6904l-1.9434-0.0264v0.0176l1.9434,0.5244v0.4971l-1.9434,0.5059v0.0127l1.9434-0.0215v0.6377h-2.832V40.694l1.8242-0.502v-0.0176L41.4828,39.6862z M41.4828,33.2058v-0.9414h2.832v0.6904l-1.9434-0.0264v0.0176l1.9434,0.5244v0.4971l-1.9434,0.5059v0.0127l1.9434-0.0215v0.6377h-2.832v-0.8887l1.8242-0.502V33.694L41.4828,33.2058z M44.3148,37.6911v0.708h-2.832v-0.708H44.3148z M44.2826,31.3415c-0.0713,0.1475-0.1729,0.2734-0.3037,0.376s-0.2881,0.1816-0.4736,0.2373s-0.3906,0.084-0.6143,0.084s-0.4268-0.0273-0.6104-0.082c-0.1826-0.0537-0.3379-0.1318-0.4678-0.2354c-0.1289-0.1025-0.2295-0.2275-0.2998-0.376c-0.0703-0.1475-0.1064-0.3154-0.1064-0.5039c0-0.1846,0.0361-0.3506,0.1064-0.499s0.1709-0.2734,0.2998-0.376c0.1299-0.1025,0.2852-0.1826,0.4678-0.2383c0.1836-0.0557,0.3867-0.083,0.6104-0.083s0.4287,0.0273,0.6143,0.083s0.3428,0.1357,0.4736,0.2383s0.2324,0.2275,0.3037,0.376c0.0723,0.1484,0.1084,0.3145,0.1084,0.499C44.391,31.0271,44.3549,31.1931,44.2826,31.3415z M47.0652,48.4086c-0.7827,0-1.4173-0.6346-1.4173-1.4173c0-0.7828,0.6346-1.4174,1.4173-1.4174c0.7828,0,1.4174,0.6346,1.4174,1.4174C48.4825,47.7741,47.848,48.4086,47.0652,48.4086z M47.0652,41.2086c-0.7827,0-1.4173-0.6345-1.4173-1.4173s0.6346-1.4174,1.4173-1.4174c0.7828,0,1.4174,0.6346,1.4174,1.4174S47.848,41.2086,47.0652,41.2086z M47.0652,34.0086c-0.7827,0-1.4173-0.6345-1.4173-1.4173s0.6346-1.4173,1.4173-1.4173c0.7828,0,1.4174,0.6345,1.4174,1.4173S47.848,34.0086,47.0652,34.0086z"/>
        </g>
        <path fill="#FFFFFF"  d="M43.3627,25.4079c0.166,0,0.3115,0.0273,0.4375,0.0801c0.125,0.0537,0.2324,0.127,0.3193,0.2188c0.0879,0.0918,0.1533,0.2002,0.1982,0.3242c0.0439,0.124,0.0664,0.2588,0.0664,0.4023c0,0.2676-0.0684,0.4961-0.2051,0.6855c-0.1357,0.1904-0.3438,0.3164-0.623,0.3779l-0.166-0.6494c0.1074-0.0244,0.1953-0.0674,0.2627-0.1289c0.0674-0.0605,0.1016-0.1455,0.1016-0.2529c0-0.0576-0.0127-0.1084-0.0371-0.1514s-0.0566-0.0791-0.0967-0.1084s-0.085-0.0508-0.1357-0.0645s-0.1016-0.0205-0.1543-0.0205c-0.1406,0-0.2451,0.041-0.3125,0.1221s-0.1016,0.1895-0.1016,0.3242v0.166h-0.543v-0.1846c0-0.1221-0.0352-0.2168-0.1074-0.2832c-0.0723-0.0654-0.1729-0.0986-0.3018-0.0986c-0.083,0-0.1611,0.0244-0.2344,0.0713c-0.0732,0.0479-0.1104,0.124-0.1104,0.2275c0,0.0898,0.0293,0.1582,0.0869,0.207c0.0586,0.0498,0.1328,0.0859,0.2217,0.1104l-0.1572,0.6309c-0.1406-0.0371-0.2598-0.0898-0.3584-0.1592c-0.0977-0.0684-0.1787-0.1465-0.2412-0.2344c-0.0635-0.0869-0.1094-0.1836-0.1387-0.2871c-0.0283-0.1045-0.043-0.21-0.043-0.3174c0-0.1201,0.0176-0.2354,0.0547-0.3477s0.0918-0.2119,0.166-0.3018c0.0732-0.0889,0.165-0.1602,0.2754-0.2139s0.2393-0.0801,0.3867-0.0801c0.1904,0,0.3506,0.041,0.4805,0.1221c0.1309,0.0811,0.2168,0.1895,0.2598,0.3242h0.0146c0.043-0.1562,0.1318-0.2803,0.2666-0.373C43.0287,25.4538,43.1849,25.4079,43.3627,25.4079z"/>
        <path fill="#FFFFFF"  d="M44.3148,23.779v0.9336l-3.2568,0.7871v-0.833l2.3828-0.4414v-0.0088L41.058,23.779v-0.8008L44.3148,23.779z"/>
        <path fill="#FFFFFF"  d="M44.3148,19.8952c0.0488,0.1475,0.0742,0.3203,0.0742,0.5195c0,0.2061-0.042,0.3887-0.125,0.5498c-0.082,0.1611-0.1982,0.2979-0.3467,0.4092c-0.1484,0.1123-0.3271,0.1982-0.5361,0.2578c-0.208,0.0596-0.4404,0.0898-0.6943,0.0898c-0.2549,0-0.4873-0.0303-0.6973-0.0898s-0.3906-0.1445-0.543-0.2549c-0.1514-0.1104-0.2686-0.2432-0.3516-0.3984c-0.083-0.1543-0.124-0.3271-0.124-0.5176c0-0.2207,0.0371-0.4053,0.1123-0.5537c0.0752-0.1494,0.1699-0.2666,0.2832-0.3525l0.5381,0.4004c-0.1533,0.1113-0.2305,0.2617-0.2305,0.4531c0,0.1016,0.0273,0.1895,0.0811,0.2627c0.0537,0.0742,0.126,0.1357,0.2188,0.1855c0.0918,0.0488,0.1992,0.085,0.3213,0.1084c0.123,0.0234,0.2529,0.0342,0.3916,0.0342c0.1377,0,0.2686-0.0107,0.3906-0.0322c0.123-0.0215,0.2305-0.0557,0.3223-0.1035s0.165-0.1084,0.2207-0.1807s0.083-0.1602,0.083-0.2617c0-0.1104-0.0234-0.1973-0.0693-0.2588h-0.6074v0.3496h-0.6387v-0.9932h1.7334C44.2015,19.6218,44.266,19.7478,44.3148,19.8952z"/>
        <path fill="#FFFFFF"  d="M44.3148,17.8483l-1.9824,0.7539v0.0137l1.9824-0.0176v0.6572H41.058V18.446l2.0107-0.75v-0.0137L41.058,17.696v-0.6348h3.2568V17.8483z"/>
        <path fill="#FFFFFF"  d="M42.6957,14.4772c0.2451,0,0.4678,0.0273,0.667,0.0801c0.1992,0.0537,0.3701,0.1357,0.5107,0.2461c0.1416,0.1113,0.25,0.251,0.3262,0.4209c0.0771,0.1709,0.1152,0.3721,0.1152,0.6055v0.915H41.058v-0.915c0-0.2334,0.0391-0.4346,0.1152-0.6055c0.0771-0.1699,0.1865-0.3096,0.3291-0.4209c0.1426-0.1104,0.3145-0.1924,0.5146-0.2461C42.2181,14.5046,42.4447,14.4772,42.6957,14.4772z M42.6957,15.2175c-0.3281,0-0.5752,0.0566-0.7432,0.168c-0.167,0.1123-0.25,0.2568-0.25,0.4346v0.1797h1.9688V15.82c0-0.1777-0.084-0.3223-0.251-0.4346C43.2533,15.2741,43.0121,15.2175,42.6957,15.2175z"/>
        <path fill="#FFFFFF"  d="M43.2338,10.9509c0.1934,0,0.3613,0.0264,0.5039,0.0801s0.2627,0.1279,0.3594,0.2207c0.0957,0.0938,0.168,0.2031,0.2158,0.3291s0.0713,0.2598,0.0713,0.4004c0,0.248-0.0693,0.4648-0.207,0.6484c-0.1377,0.1846-0.3467,0.3057-0.626,0.3633l-0.1973-0.6299c0.1074-0.0244,0.1992-0.0664,0.2754-0.127c0.0771-0.0596,0.1152-0.1387,0.1152-0.2363c0-0.1133-0.0469-0.1982-0.1406-0.2559c-0.0928-0.0566-0.209-0.085-0.3467-0.085c-0.1689,0-0.293,0.0469-0.373,0.1406c-0.0791,0.0938-0.1191,0.2061-0.1191,0.3379c0,0.0957,0.0146,0.2051,0.0439,0.3291c0.0283,0.124,0.0615,0.2305,0.0986,0.3193l-1.8496-0.0684v-1.6514h0.6396v1.0342l0.5615,0.0234c-0.0156-0.0371-0.0283-0.0791-0.0371-0.127c-0.0088-0.0469-0.0137-0.0879-0.0137-0.1211c0-0.1475,0.0244-0.2783,0.0732-0.3936c0.0498-0.1152,0.1182-0.2119,0.207-0.29s0.1963-0.1377,0.3223-0.1797C42.9369,10.9714,43.0775,10.9509,43.2338,10.9509z"/>
        <path fill="#FFFFFF"  d="M44.3148,9.2702v0.9336l-3.2568,0.7871v-0.833l2.3828-0.4414V9.7077L41.058,9.2702V8.4694L44.3148,9.2702z"/>
        <path fill="#FFFFFF"  d="M6.6156,10.4523l0.5933-0.1338V9.5871L6.6156,9.4543V8.718l3.2568,0.791v0.9248l-3.2568,0.7861V10.4523z M9.1639,9.965V9.9465L7.7792,9.6701v0.5566L9.1639,9.965z"/>
        <path fill="#FFFFFF"  d="M8.244,13.2648c-0.1841,0-0.3755-0.0146-0.5752-0.0439c-0.1992-0.0293-0.3823-0.083-0.5493-0.1611c-0.1675-0.0781-0.3047-0.1875-0.4121-0.3262c-0.1069-0.1396-0.1606-0.3203-0.1606-0.541s0.0537-0.4004,0.1606-0.54c0.1074-0.1396,0.2446-0.249,0.4121-0.3271c0.167-0.0781,0.3501-0.1309,0.5493-0.1582c0.1997-0.0283,0.3911-0.042,0.5752-0.042s0.3755,0.0137,0.5752,0.042c0.1992,0.0273,0.3823,0.0801,0.5493,0.1582c0.1675,0.0781,0.3047,0.1875,0.4121,0.3271c0.1069,0.1396,0.1606,0.3193,0.1606,0.54s-0.0537,0.4014-0.1606,0.541c-0.1074,0.1387-0.2446,0.248-0.4121,0.3262c-0.167,0.0781-0.3501,0.1318-0.5493,0.1611C8.6195,13.2502,8.4281,13.2648,8.244,13.2648z M8.244,12.5285c0.1074,0,0.2222-0.0039,0.3452-0.0117c0.1226-0.0078,0.2358-0.0234,0.3403-0.0479c0.104-0.0244,0.1909-0.0586,0.2598-0.1016s0.1035-0.1016,0.1035-0.1748s-0.0347-0.1318-0.1035-0.1748s-0.1558-0.0762-0.2598-0.1006c-0.1045-0.0254-0.2178-0.041-0.3403-0.0488c-0.123-0.0078-0.2378-0.0117-0.3452-0.0117c-0.1104,0-0.2271,0.0039-0.3496,0.0117s-0.2354,0.0234-0.3379,0.0488c-0.103,0.0244-0.189,0.0576-0.2578,0.1006s-0.1035,0.1016-0.1035,0.1748s0.0347,0.1318,0.1035,0.1748s0.1548,0.0771,0.2578,0.1016c0.1025,0.0244,0.2153,0.04,0.3379,0.0479S8.1337,12.5285,8.244,12.5285z"/>
        <path fill="#FFFFFF"  d="M6.6156,17.8928l0.5933-0.1338v-0.7314l-0.5933-0.1328v-0.7363l3.2568,0.791v0.9248l-3.2568,0.7861V17.8928z M9.1639,17.4055v-0.0186l-1.3848-0.2764v0.5566L9.1639,17.4055z"/>
        <path fill="#FFFFFF"  d="M6.6156,19.2492H9.017l-0.3682-0.4873l0.5703-0.3262l0.6533,0.8916v0.6445H6.6156V19.2492z"/>
        <path fill="#FFFFFF"  d="M6.6156,24.7268l0.5933-0.1338v-0.7314l-0.5933-0.1328v-0.7363l3.2568,0.791v0.9248l-3.2568,0.7861V24.7268z M9.1639,24.2395v-0.0186l-1.3848-0.2764v0.5566L9.1639,24.2395z"/>
        <path fill="#FFFFFF"  d="M8.9755,27.5148c-0.1074,0-0.207-0.0137-0.2988-0.041c-0.0923-0.0273-0.1797-0.0645-0.2622-0.1104c-0.083-0.0459-0.1626-0.0986-0.2393-0.1562c-0.0767-0.0586-0.1504-0.1182-0.2212-0.1797l-0.7036-0.6074v1.0537H6.6156v-1.9277h0.6533l1.1362,0.9893c0.0918,0.0801,0.186,0.1426,0.2827,0.1885s0.1895,0.0693,0.2783,0.0693c0.0952,0,0.1763-0.0225,0.2437-0.0664c0.0674-0.0449,0.1016-0.1143,0.1016-0.21c0-0.0889-0.0361-0.1621-0.1084-0.2207c-0.0718-0.0586-0.1772-0.0938-0.3149-0.1055l0.0645-0.6904c0.3311,0.0371,0.5786,0.1494,0.7427,0.3379c0.1641,0.1895,0.2461,0.4229,0.2461,0.7021c0,0.1504-0.0229,0.2852-0.0688,0.4043c-0.0459,0.1201-0.1104,0.2217-0.1934,0.3066c-0.0825,0.084-0.1841,0.1494-0.3037,0.1953C9.2562,27.4924,9.1224,27.5148,8.9755,27.5148z"/>
        <path fill="#FFFFFF"  d="M6.6156,32.0144l0.5161-0.1279v-0.6997l-0.5161-0.1279v-0.7041l2.832,0.7568v0.8853l-2.832,0.752V32.0144z M8.8314,31.5471v-0.0176l-1.2036-0.2637v0.5327L8.8314,31.5471z"/>
        <path fill="#FFFFFF"  d="M7.4437,34.6774c-0.144,0-0.271-0.0264-0.3799-0.0771c-0.1094-0.0518-0.2021-0.1211-0.2783-0.209c-0.0757-0.0879-0.1333-0.1914-0.1719-0.3105c-0.0386-0.1182-0.0581-0.2471-0.0581-0.3848c0-0.2549,0.0596-0.4736,0.1782-0.6553c0.1187-0.1826,0.2993-0.3027,0.542-0.3613l0.144,0.6201c-0.0938,0.0234-0.1694,0.0645-0.228,0.124c-0.0591,0.0586-0.0884,0.1387-0.0884,0.2412c0,0.0557,0.0107,0.1045,0.0322,0.1455s0.0493,0.0752,0.084,0.1035c0.0347,0.0273,0.0742,0.0488,0.1182,0.0615c0.0439,0.0137,0.0884,0.0195,0.1338,0.0195c0.1226,0,0.2134-0.0391,0.272-0.1162c0.0586-0.0781,0.0879-0.1816,0.0879-0.3105v-0.1582h0.4722v0.1758c0,0.1172,0.0312,0.208,0.0942,0.2705c0.0625,0.0635,0.1499,0.0947,0.2617,0.0947c0.0723,0,0.1401-0.0225,0.2041-0.0684c0.064-0.0449,0.0962-0.1182,0.0962-0.2178c0-0.085-0.0254-0.1504-0.0762-0.1973s-0.1147-0.082-0.1919-0.1055l0.1357-0.6035c0.1226,0.0352,0.2266,0.0859,0.312,0.1523c0.0854,0.0654,0.1553,0.1406,0.21,0.2236c0.0547,0.084,0.0947,0.1758,0.1201,0.2754s0.0381,0.2012,0.0381,0.3037c0,0.1143-0.0161,0.2246-0.0479,0.332c-0.0322,0.1074-0.0801,0.2031-0.144,0.2881s-0.144,0.1533-0.2402,0.2051c-0.0962,0.0508-0.208,0.0771-0.3359,0.0771c-0.1655,0-0.3047-0.0391-0.418-0.1172c-0.1133-0.0771-0.189-0.1807-0.2261-0.3096H8.0834c-0.0371,0.1494-0.1143,0.2676-0.2319,0.3564C7.7343,34.6335,7.598,34.6774,7.4437,34.6774z"/>
        <g >
            <polygon fill="#FFFFFF" points="8.8314,41.9226 7.6278,41.6589 7.6278,42.1911 8.8314,41.9401 " />
            <path fill="#FFFFFF"  d="M8.0238,40.2292c0.2852,0,0.5005-0.0537,0.646-0.1611c0.145-0.1064,0.2178-0.2451,0.2178-0.416v-0.1709H7.1757v0.1709c0,0.1709,0.0728,0.3096,0.2178,0.416C7.5389,40.1755,7.7489,40.2292,8.0238,40.2292z"/>
            <path fill="#FFFFFF"  d="M9.0877,36.1995H0.2652v2.1744c0.7828,0,1.4174,0.6346,1.4174,1.4174s-0.6346,1.4173-1.4174,1.4173v4.3654c0.7828,0,1.4174,0.6346,1.4174,1.4174c0,0.7827-0.6346,1.4173-1.4174,1.4173v2.2033h8.8225c0.4697,0,0.8504-0.3807,0.8504-0.8504V37.0499C9.9381,36.5803,9.5574,36.1995,9.0877,36.1995z M3.8652,48.4086c-0.7828,0-1.4174-0.6346-1.4174-1.4173c0-0.7828,0.6346-1.4174,1.4174-1.4174c0.7827,0,1.4173,0.6346,1.4173,1.4174C5.2825,47.7741,4.6479,48.4086,3.8652,48.4086z M3.8652,41.2086c-0.7828,0-1.4174-0.6345-1.4174-1.4173s0.6346-1.4174,1.4174-1.4174c0.7827,0,1.4173,0.6346,1.4173,1.4174S4.6479,41.2086,3.8652,41.2086z M9.4476,49.1022H7.2074v0.8311H6.6156v-1.5439h2.832V49.1022z M9.4218,47.9411c-0.0684,0.1396-0.1528,0.252-0.2544,0.3369l-0.4639-0.3789c0.064-0.0527,0.1147-0.1123,0.1523-0.1777c0.0371-0.0664,0.0557-0.1494,0.0557-0.249c0-0.0938-0.0225-0.1748-0.0679-0.2441c-0.0454-0.0684-0.1074-0.127-0.186-0.1758s-0.1719-0.084-0.2798-0.1074c-0.1084-0.0234-0.2236-0.0352-0.3462-0.0352s-0.2373,0.0117-0.3442,0.0352c-0.1064,0.0234-0.1997,0.0586-0.2798,0.1074s-0.1426,0.1074-0.188,0.1777c-0.0454,0.0713-0.0679,0.1533-0.0679,0.2471s0.021,0.1758,0.064,0.2461c0.0425,0.0703,0.0933,0.126,0.1519,0.167l-0.4438,0.3916c-0.1094-0.085-0.2007-0.1963-0.2739-0.334c-0.0737-0.1377-0.1104-0.3145-0.1104-0.5283c0-0.1816,0.0366-0.3467,0.1104-0.4951c0.0732-0.1475,0.1758-0.2744,0.3076-0.3799c0.1323-0.1064,0.2896-0.1885,0.4722-0.2471s0.3833-0.0879,0.6021-0.0879c0.2212,0,0.4238,0.0293,0.6079,0.0879s0.3413,0.1406,0.4722,0.2471c0.1304,0.1055,0.2319,0.2324,0.3037,0.3799c0.0723,0.1484,0.1084,0.3135,0.1084,0.4951C9.5238,47.6276,9.4896,47.8015,9.4218,47.9411z M9.4481,45.8259c-0.0503,0.1348-0.1191,0.248-0.2065,0.3389l-0.4702-0.3652c0.0562-0.0527,0.0996-0.1143,0.1304-0.1846c0.0303-0.0703,0.0459-0.1436,0.0459-0.2207c0-0.0791-0.0229-0.1494-0.0684-0.2129s-0.1201-0.0947-0.2241-0.0947c-0.0884,0-0.1572,0.0322-0.2065,0.0967c-0.0493,0.0645-0.1035,0.1602-0.1621,0.2861c-0.0322,0.0713-0.0703,0.1455-0.1143,0.2236s-0.0981,0.1504-0.1621,0.2148C7.9457,45.9733,7.869,46.0271,7.7797,46.07c-0.0894,0.042-0.1958,0.0635-0.3184,0.0635c-0.1523,0-0.2866-0.0264-0.4028-0.0791c-0.1162-0.0537-0.2124-0.125-0.2886-0.2148s-0.1333-0.1943-0.1724-0.3125c-0.0386-0.1172-0.0581-0.2393-0.0581-0.3652c0-0.1885,0.0322-0.3594,0.0962-0.5127c0.064-0.1543,0.1387-0.2783,0.2241-0.3721l0.48,0.3613c-0.064,0.0674-0.1157,0.1445-0.1543,0.2324s-0.0576,0.1777-0.0576,0.2686c0,0.085,0.0249,0.1572,0.0757,0.2158c0.0508,0.0586,0.1216,0.0879,0.2119,0.0879c0.0938,0,0.1675-0.0352,0.2222-0.1055s0.1128-0.1729,0.1738-0.3076c0.0376-0.0859,0.0786-0.165,0.124-0.2402s0.1001-0.1406,0.1641-0.1982c0.064-0.0566,0.1387-0.1016,0.2241-0.1338s0.1865-0.0488,0.3042-0.0488c0.1572,0,0.2925,0.0293,0.4058,0.0859c0.1133,0.0576,0.2061,0.1318,0.2778,0.2246c0.0723,0.0918,0.1255,0.1953,0.1602,0.3076c0.0347,0.1133,0.0522,0.2266,0.0522,0.3408C9.5238,45.5388,9.4984,45.6911,9.4481,45.8259z M6.6156,41.4519v-0.7041l2.832,0.7568v0.8848l-2.832,0.752v-0.7344l0.5161-0.1279v-0.6992L6.6156,41.4519z M6.6156,39.6433v-0.875h2.832v0.875c0,0.2236-0.0332,0.416-0.1001,0.5791c-0.0664,0.1631-0.1621,0.2969-0.2861,0.4023s-0.2729,0.1846-0.4478,0.2354c-0.1748,0.0518-0.3716,0.0771-0.5898,0.0771c-0.2134,0-0.4067-0.0254-0.5801-0.0771c-0.1733-0.0508-0.3213-0.1299-0.4443-0.2354c-0.1226-0.1055-0.2173-0.2393-0.2837-0.4023C6.6488,40.0593,6.6156,39.8669,6.6156,39.6433z M9.4481,38.2614c-0.0503,0.1348-0.1191,0.248-0.2065,0.3389l-0.4702-0.3652c0.0562-0.0527,0.0996-0.1143,0.1304-0.1846c0.0303-0.0703,0.0459-0.1436,0.0459-0.2207c0-0.0791-0.0229-0.1494-0.0684-0.2129s-0.1201-0.0947-0.2241-0.0947c-0.0884,0-0.1572,0.0322-0.2065,0.0967S8.3451,37.779,8.2865,37.905c-0.0322,0.0713-0.0703,0.1455-0.1143,0.2236s-0.0981,0.1504-0.1621,0.2148c-0.0645,0.0654-0.1411,0.1191-0.2305,0.1621c-0.0894,0.042-0.1958,0.0635-0.3184,0.0635c-0.1523,0-0.2866-0.0264-0.4028-0.0791c-0.1162-0.0537-0.2124-0.125-0.2886-0.2148s-0.1333-0.1943-0.1724-0.3125c-0.0386-0.1172-0.0581-0.2393-0.0581-0.3652c0-0.1885,0.0322-0.3594,0.0962-0.5127c0.064-0.1543,0.1387-0.2783,0.2241-0.3721l0.48,0.3613c-0.064,0.0674-0.1157,0.1445-0.1543,0.2324s-0.0576,0.1777-0.0576,0.2686c0,0.085,0.0249,0.1572,0.0757,0.2158c0.0508,0.0586,0.1216,0.0879,0.2119,0.0879c0.0938,0,0.1675-0.0352,0.2222-0.1055s0.1128-0.1729,0.1738-0.3076c0.0376-0.0859,0.0786-0.165,0.124-0.2402s0.1001-0.1406,0.1641-0.1982c0.064-0.0566,0.1387-0.1016,0.2241-0.1338s0.1865-0.0488,0.3042-0.0488c0.1572,0,0.2925,0.0293,0.4058,0.0859c0.1133,0.0576,0.2061,0.1318,0.2778,0.2246c0.0723,0.0918,0.1255,0.1953,0.1602,0.3076c0.0347,0.1133,0.0522,0.2266,0.0522,0.3408C9.5238,37.9743,9.4984,38.1267,9.4481,38.2614z"/>
        </g>
        <path fill="#FFFFFF"  d="M9.2469,53.2692H6.6156v-0.7217h2.6313v-0.5986h0.6255v1.9189H9.2469V53.2692z"/>
        <path fill="#FFFFFF"  d="M6.6982,55.4431l1.0762-0.4502l-1.0762-0.4463V53.778l1.7065,0.8008l1.5503-0.7363v0.7686l-0.9893,0.4004l0.9893,0.4043v0.7549l-1.5454-0.7412L6.6982,56.239V55.4431z"/>
        <g >
            <g >
                <g >
                    <line y1="28.0503" fill="none" stroke-width="0.864" x1="36.4931"  stroke-linecap="round" x2="39.3731" stroke="#FFFFFF" y2="28.0503"/>
                </g>
            </g>
            <g >
                <g >
                    <line y1="40.5063" fill="none" stroke-width="0.864" x1="24.9731"  stroke-linecap="round" x2="24.9731" stroke="#FFFFFF" y2="43.3863"/>
                </g>
            </g>
            <g >
                <g >
                    <line y1="36.9063" fill="none" stroke-width="0.576" x1="32.1371"  stroke-linecap="round" x2="33.5771" stroke="#FFFFFF" y2="36.9063"/>
                </g>
            </g>
            <g >
                <g >
                    <line y1="56.2525" fill="none" stroke-width="0.432" x1="11.6452"  stroke-linecap="round" x2="11.6452" stroke="#FFFFFF" y2="48.8824"/>
                    <line y1="48.8824" fill="none" stroke-width="0.432" x1="11.6452"  stroke-linecap="round" x2="14.7633" stroke="#FFFFFF" y2="48.8824"/>
                    <line y1="48.8824" fill="none" stroke-width="0.432" x1="25.5349"  stroke-linecap="round" x2="28.9365" stroke="#FFFFFF" y2="48.8824"/>
                    <line y1="48.8824" fill="none" stroke-width="0.432" x1="28.9365"  stroke-linecap="round" x2="28.9365" stroke="#FFFFFF" y2="56.2525"/>
                    <line y1="61.0714" fill="none" stroke-width="0.432" x1="14.1964"  stroke-linecap="round" x2="26.1018" stroke="#FFFFFF" y2="61.0714"/>
                </g>
            </g>
            <g >
                <g >
                    <line y1="31.0649" fill="none" stroke-width="0.576" x1="31.5209"  stroke-linecap="round" x2="31.5209" stroke="#FFFFFF" y2="25.3957"/>
                    <line y1="25.3957" fill="none" stroke-width="0.576" x1="35.4893"  stroke-linecap="round" x2="35.4893" stroke="#FFFFFF" y2="31.0649"/>
                    <line y1="28.939" fill="none" stroke-width="0.576" x1="33.5051"  stroke-linecap="round" x2="32.3712" stroke="#FFFFFF" y2="27.2381"/>
                    <line y1="27.2381" fill="none" stroke-width="0.576" x1="32.3712"  stroke-linecap="round" x2="34.639" stroke="#FFFFFF" y2="27.2381"/>
                    <line y1="27.2381" fill="none" stroke-width="0.576" x1="34.639"  stroke-linecap="round" x2="33.5051" stroke="#FFFFFF" y2="28.939"/>
                    <g >
                        <path fill="none" stroke-width="0.576"  d="M33.5051,28.5138l-0.5669-0.8504h1.1338L33.5051,28.5138" stroke-linecap="round" stroke="#FFFFFF"/>
                    </g>
                </g>
            </g>
            <g >
                <g >
                    <line y1="46.05" fill="none" stroke-width="0.432" x1="35.5619"  stroke-linecap="round" x2="35.5619" stroke="#FFFFFF" y2="41.5146"/>
                    <line y1="41.7981" fill="none" stroke-width="0.432" x1="38.1131"  stroke-linecap="round" x2="38.1131" stroke="#FFFFFF" y2="43.3571"/>
                    <line y1="46.05" fill="none" stroke-width="0.432" x1="40.6643"  stroke-linecap="round" x2="40.6643" stroke="#FFFFFF" y2="41.5146"/>
                </g>
            </g>
            <g >
                <g >
                    <line y1="42.9183" fill="none" stroke-width="0.576" x1="33.5771"  stroke-linecap="round" x2="32.1371" stroke="#FFFFFF" y2="42.9183"/>
                </g>
            </g>
            <g >
                <g >
                    <line y1="24.5943" fill="none" stroke-width="0.576" x1="16.0091"  stroke-linecap="round" x2="16.0091" stroke="#FFFFFF" y2="26.0343"/>
                </g>
            </g>
            <g >
                <g >
                    <line y1="26.1783" fill="none" stroke-width="0.576" x1="29.1131"  stroke-linecap="round" x2="30.5531" stroke="#FFFFFF" y2="26.1783"/>
                </g>
            </g>
            <g >
                <g >
                    <line y1="26.1783" fill="none" stroke-width="0.576" x1="27.3851"  stroke-linecap="round" x2="25.9451" stroke="#FFFFFF" y2="26.1783"/>
                </g>
            </g>
            <g >
                <g >
                    <line y1="26.5383" fill="none" stroke-width="0.576" x1="21.6251"  stroke-linecap="round" x2="20.1851" stroke="#FFFFFF" y2="26.5383"/>
                </g>
            </g>
            <g >
                <g >
                    <line y1="59.959" fill="none" stroke-width="0.576" x1="31.4131"  stroke-linecap="round" x2="31.4131" stroke="#FFFFFF" y2="48.0536"/>
                    <line y1="48.0536" fill="none" stroke-width="0.576" x1="40.0611"  stroke-linecap="round" x2="40.0611" stroke="#FFFFFF" y2="59.959"/>
                </g>
            </g>
            <g >
                <g >
                    <line y1="41.239" fill="none" stroke-width="0.576" x1="10.5691"  stroke-linecap="round" x2="10.5691" stroke="#FFFFFF" y2="29.3336"/>
                    <line y1="29.3336" fill="none" stroke-width="0.576" x1="19.2171"  stroke-linecap="round" x2="19.2171" stroke="#FFFFFF" y2="41.239"/>
                </g>
            </g>
            <g >
                <g >
                    <line y1="39.1715" fill="none" stroke-width="0.576" x1="23.0654"  stroke-linecap="round" x2="27.6008" stroke="#FFFFFF" y2="39.1715"/>
                    <line y1="29.8171" fill="none" stroke-width="0.576" x1="23.0654"  stroke-linecap="round" x2="27.6008" stroke="#FFFFFF" y2="29.8171"/>
                    <line y1="35.6282" fill="none" stroke-width="0.576" x1="22.3567"  stroke-linecap="round" x2="22.3567" stroke="#FFFFFF" y2="33.3604"/>
                </g>
            </g>
            <g >
                <g >
                    <line y1="11.6689" fill="none" stroke-width="0.288" x1="38.1479"  stroke-linecap="round" x2="38.1479" stroke="#FFFFFF" y2="15.4957"/>
                    <line y1="15.4957" fill="none" stroke-width="0.288" x1="12.8063"  stroke-linecap="round" x2="12.8063" stroke="#FFFFFF" y2="11.6689"/>
                    <line y1="0.3303" fill="none" stroke-width="0.288" x1="12.8063"  stroke-linecap="round" x2="38.1479" stroke="#FFFFFF" y2="0.3303"/>
                    <line y1="0.3303" fill="none" stroke-width="0.288" x1="38.1479"  stroke-linecap="round" x2="38.1479" stroke="#FFFFFF" y2="4.157"/>
                    <line y1="4.157" fill="none" stroke-width="0.288" x1="12.8063"  stroke-linecap="round" x2="12.8063" stroke="#FFFFFF" y2="0.3303"/>
                </g>
            </g>
        </g>
        <g  transform="matrix(0, -1, 1, 0, 9.04306, 69.8689)">
            <g >
                <g  transform="matrix(-2.535182e-06 -1 1 -2.535182e-06 10.2359 68.0159)">
                    <rect fill="#9A916C" gorn="0.0.28.0.0.0" height="3.515" id="connector5pin"  y="27.1325" width="4.252" x="36.9998"/>
                </g>
            </g>
        </g>
        <g  transform="matrix(0, -1, 1, 0, 14.4289, 64.4831)">
            <g >
                <g  transform="matrix(-2.535182e-06 -1 1 -2.535182e-06 15.6217 62.6301)">
                    <rect fill="#9A916C" gorn="0.0.29.0.0.0" height="3.515" id="connector6pin"  y="21.7467" width="4.252" x="36.9998"/>
                </g>
            </g>
        </g>
        <rect fill="#9A916C" gorn="0.0.30" height="4.252" id="connector7pin"  y="39.8203" width="3.515" x="20.5227"/>
        <rect fill="#9A916C" gorn="0.0.31" height="4.252" id="connector8pin"  y="39.8203" width="3.515" x="25.9085"/>
        <g  transform="matrix(0, -1, 1, 0, -3.636, 72.396)">
            <g >
                <g  transform="matrix(-2.535182e-06 -1 1 -2.535182e-06 -2.4433 70.5429)">
                    <rect fill="#9A916C" gorn="0.0.32.0.0.0" height="1.7008" id="connector9pin"  y="35.6427" width="1.7008" x="33.1993"/>
                </g>
            </g>
        </g>
        <g  transform="matrix(0, -1, 1, 0, -0.756, 69.516)">
            <g >
                <g  transform="matrix(-2.535182e-06 -1 1 -2.535182e-06 0.4367 67.6629)">
                    <rect fill="#9A916C" gorn="0.0.33.0.0.0" height="1.7008" id="connector10pin"  y="32.7627" width="1.7008" x="33.1993"/>
                </g>
            </g>
        </g>
        <g  transform="matrix(0, -1, 1, 0, -30.2817, 65.1218)">
            <g >
                <g  transform="matrix(-2.535182e-06 -1 1 -2.535182e-06 -29.089 63.2687)">
                    <rect fill="#9A916C" gorn="0.0.34.0.0.0" height="4.3937" id="connector11pin"  y="43.9819" width="1.4173" x="16.3811"/>
                </g>
            </g>
        </g>
        <g  transform="matrix(0, -1, 1, 0, -27.447, 67.9564)">
            <g >
                <g  transform="matrix(-2.535182e-06 -1 1 -2.535182e-06 -26.2544 66.1033)">
                    <rect fill="#9A916C" gorn="0.0.35.0.0.0" height="4.3937" id="connector12pin"  y="43.9819" width="1.4173" x="19.2157"/>
                </g>
            </g>
        </g>
        <g  transform="matrix(0, -1, 1, 0, -24.6124, 70.791)">
            <g >
                <g  transform="matrix(-2.535182e-06 -1 1 -2.535182e-06 -23.4197 68.938)">
                    <rect fill="#9A916C" gorn="0.0.36.0.0.0" height="4.3937" id="connector13pin"  y="43.9819" width="1.4173" x="22.0504"/>
                </g>
            </g>
        </g>
        <g  transform="matrix(0, -1, 1, 0, -21.7778, 73.6258)">
            <g >
                <g  transform="matrix(-2.535182e-06 -1 1 -2.535182e-06 -20.585 71.7726)">
                    <rect fill="#9A916C" gorn="0.0.37.0.0.0" height="4.3937" id="connector14pin"  y="43.9819" width="1.4173" x="24.885"/>
                </g>
            </g>
        </g>
        <g  transform="matrix(0, -1, 1, 0, -45.0218, 72.4918)">
            <g >
                <g  transform="matrix(-2.535182e-06 -1 1 -2.535182e-06 -43.8292 70.6388)">
                    <rect fill="#9A916C" gorn="0.0.38.0.0.0" height="5.1024" id="connector15pin"  y="54.6827" width="3.4016" x="11.7039"/>
                </g>
            </g>
        </g>
        <g  transform="matrix(0, -1, 1, 0, -29.1478, 88.3656)">
            <g >
                <g  transform="matrix(-2.535182e-06 -1 1 -2.535182e-06 -27.9551 86.5128)">
                    <rect fill="#9A916C" gorn="0.0.39.0.0.0" height="5.1024" id="connector16pin"  y="54.6827" width="3.4016" x="27.5779"/>
                </g>
            </g>
        </g>
        <g  transform="matrix(0, -1, 1, 0, 10.1611, 59.8949)">
            <g >
                <g  transform="matrix(-2.535182e-06 -1 1 -2.535182e-06 11.3537 58.0419)">
                    <rect fill="#9A916C" gorn="0.0.40.0.0.0" height="2.5512" id="connector17pin"  y="22.0685" width="2.2677" x="33.5639"/>
                </g>
            </g>
        </g>
        <g  transform="matrix(0, -1, 1, 0, 4.09493, 65.9611)">
            <g >
                <g  transform="matrix(-2.535182e-06 -1 1 -2.535182e-06 5.2876 64.108)">
                    <rect fill="#9A916C" gorn="0.0.41.0.0.0" height="2.5512" id="connector18pin"  y="28.1346" width="2.2677" x="33.5639"/>
                </g>
            </g>
        </g>
        <circle fill="none" r="1.9687" gorn="0.0.42" stroke-width="1.1027" id="connector19pin"  cy="10.9863" stroke="#9A916C" cx="3.8771"/>
        <circle fill="none" r="1.9687" gorn="0.0.43" stroke-width="1.1027" id="connector21pin"  cy="18.1863" stroke="#9A916C" cx="3.8771"/>
        <circle fill="none" r="1.9687" gorn="0.0.44" stroke-width="1.1027" id="connector23pin"  cy="25.3863" stroke="#9A916C" cx="3.8771"/>
        <circle fill="none" r="1.9687" gorn="0.0.45" stroke-width="1.1027" id="connector25pin"  cy="32.5863" stroke="#9A916C" cx="3.8771"/>
        <circle fill="none" r="1.9687" gorn="0.0.46" stroke-width="1.1027" id="connector27pin"  cy="39.7863" stroke="#9A916C" cx="3.8771"/>
        <circle fill="none" r="1.9687" gorn="0.0.47" stroke-width="1.1027" id="connector29pin"  cy="46.9863" stroke="#9A916C" cx="3.8771"/>
        <circle fill="none" r="1.9687" gorn="0.0.48" stroke-width="1.1027" id="connector31pin"  cy="54.1863" stroke="#9A916C" cx="3.8771"/>
        <circle fill="none" r="1.9687" gorn="0.0.49" stroke-width="1.1027" id="connector33pin"  cy="54.1863" stroke="#9A916C" cx="47.0771"/>
        <circle fill="none" r="1.9687" gorn="0.0.50" stroke-width="1.1027" id="connector35pin"  cy="46.9863" stroke="#9A916C" cx="47.0771"/>
        <circle fill="none" r="1.9687" gorn="0.0.51" stroke-width="1.1027" id="connector37pin"  cy="39.7863" stroke="#9A916C" cx="47.0771"/>
        <circle fill="none" r="1.9687" gorn="0.0.52" stroke-width="1.1027" id="connector39pin"  cy="32.5863" stroke="#9A916C" cx="47.0771"/>
        <circle fill="none" r="1.9687" gorn="0.0.53" stroke-width="1.1027" id="connector41pin"  cy="25.3863" stroke="#9A916C" cx="47.0771"/>
        <circle fill="none" r="1.9687" gorn="0.0.54" stroke-width="1.1027" id="connector43pin"  cy="18.1863" stroke="#9A916C" cx="47.0771"/>
        <circle fill="none" r="1.9687" gorn="0.0.55" stroke-width="1.1027" id="connector45pin"  cy="10.9863" stroke="#9A916C" cx="47.0771"/>
        <g  transform="matrix(0, -1, 1, 0, -3.95773, 85.7808)">
            <g >
                <g  transform="matrix(-2.535182e-06 -1 1 -2.535182e-06 -2.7651 83.9279)">
                    <rect fill="#9A916C" gorn="0.0.56.0.0.0" height="1.4173" id="connector47pin"  y="42.6378" width="1.4173" x="39.8726"/>
                </g>
            </g>
        </g>
        <g  transform="matrix(0, -1, 1, 0, -1.12308, 82.9462)">
            <g >
                <g  transform="matrix(-2.535182e-06 -1 1 -2.535182e-06 0.0696 81.0932)">
                    <rect fill="#9A916C" gorn="0.0.57.0.0.0" height="1.4173" id="connector48pin"  y="39.8031" width="1.4173" x="39.8726"/>
                </g>
            </g>
        </g>
        <g  transform="matrix(0, -1, 1, 0, -3.67427, 80.3952)">
            <g >
                <g  transform="matrix(-2.535182e-06 -1 1 -2.535182e-06 -2.4815 78.5421)">
                    <rect fill="#9A916C" gorn="0.0.58.0.0.0" height="1.4173" id="connector49pin"  y="39.8031" width="1.4173" x="37.3215"/>
                </g>
            </g>
        </g>
        <g  transform="matrix(0, -1, 1, 0, -6.50892, 83.2298)">
            <g >
                <g  transform="matrix(-2.535182e-06 -1 1 -2.535182e-06 -5.3162 81.3768)">
                    <rect fill="#9A916C" gorn="0.0.59.0.0.0" height="1.4173" id="connector50pin"  y="42.6378" width="1.4173" x="37.3215"/>
                </g>
            </g>
        </g>
        <g  transform="matrix(0, 1, -1, 0, 75.528, 6.768)">
            <g >
                <g  transform="matrix(2.535182e-06 1 -1 2.535182e-06 77.381 7.9605)">
                    <rect fill="#9A916C" gorn="0.0.60.0.0.0" height="1.7008" id="connector51pin"  y="41.8205" width="1.7008" x="33.8599"/>
                </g>
            </g>
        </g>
        <g  transform="matrix(0, 1, -1, 0, 78.408, 9.648)">
            <g >
                <g  transform="matrix(2.535182e-06 1 -1 2.535182e-06 80.261 10.8405)">
                    <rect fill="#9A916C" gorn="0.0.61.0.0.0" height="1.7008" id="connector52pin"  y="44.7005" width="1.7008" x="33.8599"/>
                </g>
            </g>
        </g>
        <rect fill="#9A916C" gorn="0.0.62" height="1.7008" id="connector53pin"  y="24.4639" width="1.7008" x="13.7187"/>
        <rect fill="#9A916C" gorn="0.0.63" height="1.7008" id="connector54pin"  y="24.4639" width="1.7008" x="16.5987"/>
        <g  transform="matrix(0, -1, 1, 0, 4.068, 58.644)">
            <g >
                <g  transform="matrix(-2.535182e-06 -1 1 -2.535182e-06 5.2607 56.7909)">
                    <rect fill="#9A916C" gorn="0.0.64.0.0.0" height="1.7008" id="connector55pin"  y="24.9147" width="1.7008" x="30.1753"/>
                </g>
            </g>
        </g>
        <g  transform="matrix(0, -1, 1, 0, 6.948, 55.764)">
            <g >
                <g  transform="matrix(-2.535182e-06 -1 1 -2.535182e-06 8.1407 53.9109)">
                    <rect fill="#9A916C" gorn="0.0.65.0.0.0" height="1.7008" id="connector56pin"  y="22.0347" width="1.7008" x="30.1753"/>
                </g>
            </g>
        </g>
        <g  transform="matrix(0, 1, -1, 0, 52.596, -3.78)">
            <g >
                <g  transform="matrix(2.535182e-06 1 -1 2.535182e-06 54.4491 -2.5875)">
                    <rect fill="#9A916C" gorn="0.0.66.0.0.0" height="1.7008" id="connector57pin"  y="25.0805" width="1.7008" x="27.6679"/>
                </g>
            </g>
        </g>
        <g  transform="matrix(0, 1, -1, 0, 55.476, -0.9)">
            <g >
                <g  transform="matrix(2.535182e-06 1 -1 2.535182e-06 57.3291 0.2925)">
                    <rect fill="#9A916C" gorn="0.0.67.0.0.0" height="1.7008" id="connector58pin"  y="27.9605" width="1.7008" x="27.6679"/>
                </g>
            </g>
        </g>
        <g  transform="matrix(0, 1, -1, 0, 47.196, 2.34)">
            <g >
                <g  transform="matrix(2.535182e-06 1 -1 2.535182e-06 49.0491 3.5325)">
                    <rect fill="#9A916C" gorn="0.0.68.0.0.0" height="1.7008" id="connector59pin"  y="25.4405" width="1.7008" x="21.9079"/>
                </g>
            </g>
        </g>
        <g  transform="matrix(0, 1, -1, 0, 50.076, 5.22)">
            <g >
                <g  transform="matrix(2.535182e-06 1 -1 2.535182e-06 51.9291 6.4125)">
                    <rect fill="#9A916C" gorn="0.0.69.0.0.0" height="1.7008" id="connector60pin"  y="28.3205" width="1.7008" x="21.9079"/>
                </g>
            </g>
        </g>
        <g  transform="matrix(0, -1, 1, 0, -12.8727, 82.8576)">
            <g >
                <g  transform="matrix(-2.535182e-06 -1 1 -2.535182e-06 -11.68 81.0042)">
                    <rect fill="#9A916C" gorn="0.0.70.0.0.0" height="2.5512" id="connector61pin"  y="45.0665" width="2.5512" x="33.3864"/>
                </g>
            </g>
        </g>
        <g  transform="matrix(0, -1, 1, 0, -24.4948, 94.4791)">
            <g >
                <g  transform="matrix(-2.535182e-06 -1 1 -2.535182e-06 -23.302 92.6263)">
                    <rect fill="#9A916C" gorn="0.0.71.0.0.0" height="2.5512" id="connector62pin"  y="56.6885" width="2.5512" x="33.3864"/>
                </g>
            </g>
        </g>
        <g  transform="matrix(0, -1, 1, 0, -8.33724, 87.3929)">
            <g >
                <g  transform="matrix(-2.535182e-06 -1 1 -2.535182e-06 -7.1445 85.5397)">
                    <rect fill="#9A916C" gorn="0.0.72.0.0.0" height="2.5512" id="connector63pin"  y="45.0665" width="2.5512" x="37.9219"/>
                </g>
            </g>
        </g>
        <g  transform="matrix(0, -1, 1, 0, -19.9593, 99.0144)">
            <g >
                <g  transform="matrix(-2.535182e-06 -1 1 -2.535182e-06 -18.7665 97.1618)">
                    <rect fill="#9A916C" gorn="0.0.73.0.0.0" height="2.5512" id="connector64pin"  y="56.6885" width="2.5512" x="37.9219"/>
                </g>
            </g>
        </g>
        <g  transform="matrix(0, -1, 1, 0, -14.9967, 43.2932)">
            <g >
                <g  transform="matrix(-2.535182e-06 -1 1 -2.535182e-06 -13.8041 41.4402)">
                    <rect fill="#9A916C" gorn="0.0.74.0.0.0" height="2.5512" id="connector65pin"  y="26.3465" width="2.5512" x="12.5424"/>
                </g>
            </g>
        </g>
        <g  transform="matrix(0, -1, 1, 0, -26.6188, 54.9153)">
            <g >
                <g  transform="matrix(-2.535182e-06 -1 1 -2.535182e-06 -25.4261 53.0622)">
                    <rect fill="#9A916C" gorn="0.0.75.0.0.0" height="2.5512" id="connector66pin"  y="37.9685" width="2.5512" x="12.5424"/>
                </g>
            </g>
        </g>
        <g  transform="matrix(0, -1, 1, 0, -10.4612, 47.8287)">
            <g >
                <g  transform="matrix(-2.535182e-06 -1 1 -2.535182e-06 -9.2686 45.9757)">
                    <rect fill="#9A916C" gorn="0.0.76.0.0.0" height="2.5512" id="connector67pin"  y="26.3465" width="2.5512" x="17.0779"/>
                </g>
            </g>
        </g>
        <g  transform="matrix(0, -1, 1, 0, -22.0833, 59.4508)">
            <g >
                <g  transform="matrix(-2.535182e-06 -1 1 -2.535182e-06 -20.8906 57.5977)">
                    <rect fill="#9A916C" gorn="0.0.77.0.0.0" height="2.5512" id="connector68pin"  y="37.9685" width="2.5512" x="17.0779"/>
                </g>
            </g>
        </g>
        <path fill="#9A916C" gorn="0.0.78" id="connector69pin"  d="M25.4771,10.109L25.4771,10.109c0.7828,0,1.4173,0.6346,1.4173,1.4173v0c0,0.7828-0.6346,1.4173-1.4173,1.4173h0c-0.7828,0-1.4173-0.6346-1.4173-1.4173v0C24.0598,10.7435,24.6944,10.109,25.4771,10.109z"/>
        <g  transform="matrix(0, -1, 1, 0, -6.31559, 67.3983)">
            <g >
                <g  transform="matrix(-2.535182e-06 -1 1 -2.535182e-06 -5.123 65.5453)">
                    <rect fill="#9A916C" gorn="0.0.79.0.0.0" height="1.559" id="connector70pin"  y="34.5546" width="3.4016" x="28.5103"/>
                </g>
            </g>
        </g>
        <g  transform="matrix(0, -1, 1, 0, -3.62268, 64.7053)">
            <g >
                <g  transform="matrix(-2.535182e-06 -1 1 -2.535182e-06 -2.43 62.8522)">
                    <rect fill="#9A916C" gorn="0.0.80.0.0.0" height="1.559" id="connector71pin"  y="31.8616" width="3.4016" x="28.5103"/>
                </g>
            </g>
        </g>
        <g  transform="matrix(0, -1, 1, 0, -0.929765, 62.0124)">
            <g >
                <g  transform="matrix(-2.535182e-06 -1 1 -2.535182e-06 0.2629 60.1593)">
                    <rect fill="#9A916C" gorn="0.0.81.0.0.0" height="1.559" id="connector72pin"  y="29.1687" width="3.4016" x="28.5103"/>
                </g>
            </g>
        </g>
        <g  transform="matrix(0, -1, 1, 0, -8.30038, 54.6417)">
            <g >
                <g  transform="matrix(-2.535182e-06 -1 1 -2.535182e-06 -7.1078 52.7886)">
                    <rect fill="#9A916C" gorn="0.0.82.0.0.0" height="1.559" id="connector73pin"  y="29.1687" width="3.4016" x="21.1396"/>
                </g>
            </g>
        </g>
        <g  transform="matrix(0, -1, 1, 0, -13.6863, 60.0276)">
            <g >
                <g  transform="matrix(-2.535182e-06 -1 1 -2.535182e-06 -12.4937 58.1746)">
                    <rect fill="#9A916C" gorn="0.0.83.0.0.0" height="1.559" id="connector74pin"  y="34.5546" width="3.4016" x="21.1396"/>
                </g>
            </g>
        </g>
        <g  transform="matrix(-1, 0, 0, -1, 72.1418, 41.6976)">
            <g >
                <rect fill="#9A916C" gorn="0.0.84.0.0" height="3.2598" id="connector75pin"  y="18.8886" width="1.6299" x="36.7788"/>
            </g>
        </g>
        <g  transform="matrix(-1, 0, 0, -1, 67.6063, 41.6976)">
            <g >
                <rect fill="#9A916C" gorn="0.0.85.0.0" height="3.2598" id="connector76pin"  y="18.8886" width="1.6299" x="34.5111"/>
            </g>
        </g>
        <g  transform="matrix(-1, 0, 0, -1, 61.0866, 41.6976)">
            <g >
                <rect fill="#9A916C" gorn="0.0.86.0.0" height="3.2598" id="connector77pin"  y="18.8886" width="0.7795" x="31.6764"/>
            </g>
        </g>
        <g  transform="matrix(-1, 0, 0, -1, 55.4173, 41.6976)">
            <g >
                <rect fill="#9A916C" gorn="0.0.87.0.0" height="3.2598" id="connector78pin"  y="18.8886" width="0.7795" x="28.8418"/>
            </g>
        </g>
        <g  transform="matrix(-1, 0, 0, -1, 52.5827, 41.6976)">
            <g >
                <rect fill="#9A916C" gorn="0.0.88.0.0" height="3.2598" id="connector79pin"  y="18.8886" width="0.7795" x="27.4245"/>
            </g>
        </g>
        <g  transform="matrix(-1, 0, 0, -1, 46.9134, 41.6976)">
            <g >
                <rect fill="#9A916C" gorn="0.0.89.0.0" height="3.2598" id="connector80pin"  y="18.8886" width="0.7795" x="24.5898"/>
            </g>
        </g>
        <g  transform="matrix(-1, 0, 0, -1, 35.8582, 41.6976)">
            <g >
                <rect fill="#9A916C" gorn="0.0.90.0.0" height="3.2598" id="connector81pin"  y="18.8886" width="1.6299" x="18.6371"/>
            </g>
        </g>
        <g  transform="matrix(-1, 0, 0, -1, 40.3937, 41.6976)">
            <g >
                <rect fill="#9A916C" gorn="0.0.91.0.0" height="3.2598" id="connector82pin"  y="18.8886" width="1.6299" x="20.9048"/>
            </g>
        </g>
        <g  transform="matrix(-1, 0, 0, -1, 44.0788, 41.6976)">
            <g >
                <rect fill="#9A916C" gorn="0.0.92.0.0" height="3.2598" id="connector83pin"  y="18.8886" width="0.7795" x="23.1725"/>
            </g>
        </g>
        <g  transform="matrix(-1, 0, 0, -1, 49.748, 41.6976)">
            <g >
                <rect fill="#9A916C" gorn="0.0.93.0.0" height="3.2598" id="connector84pin"  y="18.8886" width="0.7795" x="26.0071"/>
            </g>
        </g>
        <g  transform="matrix(-1, 0, 0, -1, 58.252, 41.6976)">
            <g >
                <rect fill="#9A916C" gorn="0.0.94.0.0" height="3.2598" id="connector85pin"  y="18.8886" width="0.7795" x="30.2591"/>
            </g>
        </g>
        <g  transform="matrix(-1, 0, 0, -1, 63.9212, 41.6976)">
            <g >
                <rect fill="#9A916C" gorn="0.0.95.0.0" height="3.2598" id="connector86pin"  y="18.8886" width="0.7795" x="33.0937"/>
            </g>
        </g>
        <circle fill="none" r="1.2104" gorn="0.0.96" stroke-width="0.72" id="connector87pin"  cy="19.5492" stroke="#9A916C" cx="37.7228"/>
        <path fill="#9A916C"  d="M36.5124,16.7653h2.4208v5.5678h-2.4208V16.7653 M36.5124,19.5492c0,0.6685,0.5419,1.2104,1.2104,1.2104c0.6685,0,1.2104-0.5419,1.2104-1.2104s-0.5419-1.2104-1.2104-1.2104C37.0543,18.3388,36.5124,18.8807,36.5124,19.5492L36.5124,19.5492z"/>
        <circle fill="none" r="1.2104" gorn="0.0.98" stroke-width="0.72" id="connector88pin"  cy="19.5492" stroke="#9A916C" cx="13.2314"/>
        <path fill="#9A916C"  d="M12.021,16.7653h2.4208v5.5678H12.021V16.7653 M12.021,19.5492c0,0.6685,0.5419,1.2104,1.2104,1.2104s1.2104-0.5419,1.2104-1.2104s-0.5419-1.2104-1.2104-1.2104S12.021,18.8807,12.021,19.5492L12.021,19.5492z"/>
        <circle fill="none" r="1.2104" gorn="0.0.100" stroke-width="0.72" id="connector89pin"  cy="7.7003" stroke="#9A916C" cx="37.7228"/>
        <path fill="#9A916C"  d="M36.5124,4.9165h2.4208v5.5678h-2.4208V4.9165 M36.5124,7.7003c0,0.6685,0.5419,1.2104,1.2104,1.2104c0.6685,0,1.2104-0.5419,1.2104-1.2104s-0.5419-1.2104-1.2104-1.2104C37.0543,6.4899,36.5124,7.0319,36.5124,7.7003z"/>
        <circle fill="none" r="1.2104" gorn="0.0.102" stroke-width="0.72" id="connector90pin"  cy="7.7003" stroke="#9A916C" cx="13.2314"/>
        <path fill="#9A916C"  d="M12.021,4.9165h2.4208v5.5678H12.021V4.9165 M12.021,7.7003c0,0.6685,0.5419,1.2104,1.2104,1.2104s1.2104-0.5419,1.2104-1.2104s-0.5419-1.2104-1.2104-1.2104S12.021,7.0319,12.021,7.7003z"/>
        <g  transform="matrix(1, 0, 0, 1, 36.6215, 25.9485)">
            <g gorn="0.0.104.0" id="_x30_805-cap" >
                <g  transform="matrix(0, -1, 1, 0, 1.063, 4.606)">
                    <g >
                        <path fill="#DCDCDC"  d="M5.0557,2.0201h-5.103c-0.156,0-0.283-0.127-0.283-0.283v-2.977c0-0.156,0.127-0.283,0.283-0.283h5.102c0.157,0,0.283,0.127,0.283,0.283v2.977C5.3387,1.8931,5.2117,2.0201,5.0557,2.0201z"/>
                        <g  transform="matrix(-2.535182e-06 -1 1 -2.535182e-06 2.2556 2.7529)">
                            <rect fill="#6E554B" height="3.543"  y="-1.5229" width="3.543" x="0.7327"/>
                        </g>
                    </g>
                </g>
            </g>
        </g>
        <g  transform="matrix(1, 0, 0, 1, 23.6615, 39.8445)">
            <g gorn="0.0.105.0" id="_x30_805-cap_1_" >
                <path fill="#DCDCDC"  d="M3.8631,3.8733h-5.103c-0.156,0-0.283-0.127-0.283-0.283v-2.977c0-0.156,0.127-0.283,0.283-0.283h5.102c0.157,0,0.283,0.127,0.283,0.283v2.977C4.1461,3.7463,4.0191,3.8733,3.8631,3.8733z"/>
                <rect fill="#6E554B" height="3.543"  y="0.3303" width="3.543" x="-0.4599"/>
            </g>
        </g>
        <g  transform="matrix(1, 0, 0, 1, 11.6863, 54.1402)">
            <g gorn="0.0.106.0" id="_x30_603-cap_1_" >
                <g  transform="matrix(0, 1, -1, 0, 3.4015, -1.1335)">
                    <g >
                        <path fill="#DCDCDC"  d="M4.5753,3.7909h-3.955c-0.16,0-0.29-0.13-0.29-0.291v-1.687c0-0.16,0.13-0.29,0.29-0.29h3.955c0.16,0,0.29,0.13,0.29,0.29v1.687C4.8653,3.6609,4.7353,3.7909,4.5753,3.7909z"/>
                        <g  transform="matrix(2.535182e-06 1 -1 2.535182e-06 5.2551 0.0586)">
                            <rect fill="#6E554B" height="2.268"  y="1.5229" width="2.268" x="1.4643"/>
                        </g>
                    </g>
                </g>
            </g>
        </g>
        <g  transform="matrix(1, 0, 0, 1, 32.9625, 35.8675)">
            <g gorn="0.0.107.0" id="_0402no" >
                <g  transform="matrix(0, -1, 1, 0, 0.708998, 2.126)">
                    <g >
                        <path fill="#DCDCDC"  d="M2.2207-0.1059h-2.268c-0.156,0-0.283-0.127-0.283-0.283v-0.85c0-0.157,0.127-0.284,0.283-0.284h2.268c0.157,0,0.283,0.127,0.283,0.283v0.85C2.5047-0.2329,2.3777-0.1059,2.2207-0.1059z"/>
                        <g  transform="matrix(-2.535182e-06 -1 1 -2.535182e-06 1.9016 0.2728)">
                            <rect fill="#333333" height="1.417"  y="-1.5229" width="1.417" x="0.3787"/>
                        </g>
                    </g>
                </g>
            </g>
        </g>
        <g  transform="matrix(1, 0, 0, 1, 12.8561, 44.2989)">
            <g gorn="0.0.108.0" id="jst_sh4_skinny" >
                <path fill="#666666" gorn="0.0.108.0.0" id="polygon5"  d="M0.2195,5.0892l14.1872-0.017l0.0019,1.4315l1.4185-0.0017l0.0136,10.0208L-1.183,16.5432L-1.1967,6.5224l1.418-0.0017L0.2195,5.0892z" connector-curvature="0"/>
                <g  transform="matrix(1 -0.0068 0.0068 1 -0.0679 0.0887)">
                    <rect gorn="0.0.108.0.1.0" height="4.3718" id="rect7"  y="7.8191" width="1.4185" x="12.2816"/>
                </g>
                <g  transform="matrix(1 -0.0068 0.0068 1 -0.0687 0.0114)">
                    <rect gorn="0.0.108.0.2.0" height="4.3718" id="rect9"  y="7.8964" width="1.4185" x="0.9355"/>
                </g>
                <g  transform="matrix(1 -0.0068 0.0068 1 -0.048 0.0885)">
                    <rect fill="#333333" gorn="0.0.108.0.3.0" height="1.4574" id="rect11"  y="6.3617" width="1.4185" x="12.2601"/>
                </g>
                <g  transform="matrix(1 -0.0068 0.0068 1 -0.0488 0.0112)">
                    <rect fill="#333333" gorn="0.0.108.0.4.0" height="1.4574" id="rect13"  y="6.439" width="1.4185" x="0.9141"/>
                </g>
                <g  transform="matrix(1 -0.0068 0.0068 1 -0.0307 0.0787)">
                    <rect fill="#DCDCDC" gorn="0.0.108.0.5.0" height="3.6433" id="rect19"  y="2.7281" width="0.9927" x="11.0361"/>
                </g>
                <g  transform="matrix(1 -0.0068 0.0068 1 -0.0309 0.0594)">
                    <rect fill="#DCDCDC" gorn="0.0.108.0.6.0" height="3.6433" id="rect21"  y="2.7474" width="0.9927" x="8.1997"/>
                </g>
                <g  transform="matrix(1 -0.0068 0.0068 1 -0.0309 0.0594)">
                    <rect fill="#DCDCDC" gorn="0.0.108.0.7.0" height="3.6433" id="rect4164"  y="2.7474" width="0.9927" x="8.1997"/>
                </g>
                <g  transform="matrix(1 -0.0068 0.0068 1 -0.0311 0.04)">
                    <rect fill="#DCDCDC" gorn="0.0.108.0.8.0" height="3.6433" id="rect4188"  y="2.7668" width="0.9927" x="5.3631"/>
                </g>
                <g  transform="matrix(1 -0.0068 0.0068 1 -0.0313 0.0207)">
                    <rect fill="#DCDCDC" gorn="0.0.108.0.9.0" height="3.6433" id="rect4143"  y="2.7861" width="0.9927" x="2.5266"/>
                </g>
                <path gorn="0.0.108.0.10" id="path594"  d="M-1.1826,11.6562c0-2.6862-0.0043-4.9385-0.0095-5.0052l-0.0094-0.1212h0.7148h0.7148V5.8099V5.09h1.1437h1.1436l0.0097,0.3416c0.0053,0.1879,0.0097,0.492,0.0097,0.6758l0,0.3342l0.2241,0c0.1232,0,0.348-0.0044,0.4995-0.0097l0.2755-0.0096V5.7562V5.09h0.9086h0.9086l0.0096,0.2314c0.0053,0.1273,0.0096,0.4248,0.0096,0.6612l0,0.4297l0.4996,0h0.4995V5.7512V5.09h0.9109h0.9109L8.193,5.2002C8.194,5.2608,8.1965,5.317,8.1985,5.3251C8.2005,5.3332,8.203,5.5779,8.204,5.8689L8.2059,6.398l0.5007-0.0039l0.5007-0.0039L9.2055,5.7402L9.2038,5.09h0.9099c0.8162,0,0.9108,0.0024,0.9188,0.0232c0.0049,0.0128,0.0089,0.3037,0.0089,0.6465v0.6232h0.3062c0.1684,0,0.3949-0.0042,0.5032-0.0094l0.197-0.0094l-0.0044-0.6444l-0.0044-0.6444h1.1834h1.1834v0.7199v0.7199h0.7028h0.7028l0.0098,1.6553c0.0054,0.9104,0.0098,3.1616,0.0098,5.0027v3.3474l-3.2507,0c-1.7879,0-5.6159,0.0044-8.5068,0.0098l-5.2562,0.0098L-1.1826,11.6562z M2.3731,11.9696c0.0002-0.545-0.0289-4.2541-0.0384-4.9092L2.3254,6.4231L1.6182,6.4339C1.2293,6.4398,0.9093,6.4464,0.907,6.4485c-0.0055,0.0052,0.0236,4.2668,0.0351,5.1319l0.0092,0.6942h0.7108H2.373L2.3731,11.9696L2.3731,11.9696z M13.7104,12.1815c0.0116-0.0116-0.0206-5.4879-0.0335-5.6931l-0.0086-0.1369l-0.7026,0.0047c-0.3864,0.0026-0.7058,0.008-0.7097,0.012c-0.0067,0.0069,0.0045,1.8862,0.0275,4.6263l0.0102,1.2104l0.7033-0.0067C13.3839,12.1945,13.7049,12.187,13.7104,12.1815z" connector-curvature="0"/>
                <path gorn="0.0.108.0.11" id="path596"  d="M0.913,7.8081c-0.005-0.0525-0.0091-0.3774-0.0091-0.722L0.9038,6.4596l0.0551-0.0071C1.0324,6.4431,1.4385,6.4357,1.9262,6.435l0.398-0.0006l0.0091,0.5216c0.005,0.2869,0.0051,0.6157,0.0001,0.7307l-0.009,0.2091l-0.7012,0.004L0.922,7.9036L0.913,7.8081z" connector-curvature="0"/>
                <path gorn="0.0.108.0.12" id="path598"  d="M12.2705,7.6221c-0.0053-0.1104-0.0096-0.4376-0.0096-0.7273l0.0001-0.5266l0.1065-0.0034c0.0586-0.0019,0.3759-0.0035,0.7052-0.0037l0.5986-0.0002l0.0016,0.0955c0.0009,0.0525,0.0026,0.3814,0.0038,0.7309l0.0022,0.6354l-0.6993,0l-0.6993,0L12.2705,7.6221z" connector-curvature="0"/>
                <ellipse rx="2.0127" gorn="0.0.108.0.13" ry="2.0127" id="path21"  cy="18.927" cx="0.655"/>
                <ellipse fill="#FF0000" rx="2.0127" gorn="0.0.108.0.14" ry="2.0127" id="ellipse4553"  cy="18.927" cx="5.1904"/>
                <ellipse fill="#0000FF" rx="2.0127" gorn="0.0.108.0.15" ry="2.0127" id="ellipse4555"  cy="18.927" cx="9.7259"/>
                <ellipse fill="#FFFF00" rx="2.0127" gorn="0.0.108.0.16" ry="2.0127" id="ellipse4557"  cy="18.927" cx="14.2613"/>
            </g>
        </g>
        <g  transform="matrix(1, 0, 0, 1, 32.902, 23.8591)">
            <g gorn="0.0.109.0" id="sod-323_mini" >
                <g  transform="matrix(0, -1, 1, 0, -1.91489, 6.16689)">
                    <g >
                        <g >
                            <g  transform="matrix(-2.535182e-06 -1 1 -2.535182e-06 -0.7238 4.3154)">
                                <rect fill="#333333" height="5.5276"  y="-0.2442" width="4.252" x="-0.3302"/>
                            </g>
                            <g  transform="matrix(-2.535182e-06 -1 1 -2.535182e-06 -4.1254 0.9137)">
                                <rect fill="#DCDCDC" height="1.2756"  y="1.8817" width="1.1339" x="-2.1728"/>
                            </g>
                            <g  transform="matrix(-2.535182e-06 -1 1 -2.535182e-06 2.6778 7.7168)">
                                <rect fill="#DCDCDC" height="1.2756"  y="1.8817" width="1.1339" x="4.6303"/>
                            </g>
                            <g  transform="matrix(-2.535182e-06 -1 1 -2.535182e-06 -1.9821 3.0571)">
                                <rect fill="#111111" height="0.9947"  y="2.0222" width="4.252" x="-1.5885"/>
                            </g>
                        </g>
                    </g>
                </g>
            </g>
        </g>
        <g  transform="matrix(1, 0, 0, 1, 32.9625, 41.8795)">
            <g gorn="0.0.110.0" id="_0402no_1_" >
                <g  transform="matrix(0, 1, -1, 0, 2.126, -0.708998)">
                    <g >
                        <path fill="#DCDCDC"  d="M2.8813,2.9399h-2.268c-0.156,0-0.283-0.127-0.283-0.283v-0.85c0-0.157,0.127-0.284,0.283-0.284h2.268c0.157,0,0.283,0.127,0.283,0.283v0.85C3.1653,2.8129,3.0383,2.9399,2.8813,2.9399z"/>
                        <g  transform="matrix(2.535182e-06 1 -1 2.535182e-06 3.9791 0.4836)">
                            <rect fill="#333333" height="1.417"  y="1.5229" width="1.417" x="1.0393"/>
                        </g>
                    </g>
                </g>
            </g>
        </g>
        <g  transform="matrix(1, 0, 0, 1, 16.1145, 24.2755)">
            <g gorn="0.0.111.0" id="_0402no_2_" >
                <path fill="#DCDCDC"  d="M1.0281,1.7473h-2.268c-0.156,0-0.283-0.127-0.283-0.283v-0.85c0-0.157,0.127-0.284,0.283-0.284h2.268c0.157,0,0.283,0.127,0.283,0.283v0.85C1.3121,1.6203,1.1851,1.7473,1.0281,1.7473z"/>
                <rect fill="#333333" height="1.417"  y="0.3303" width="1.417" x="-0.8139"/>
            </g>
        </g>
        <g  transform="matrix(1, 0, 0, 1, 29.9385, 25.1395)">
            <g gorn="0.0.112.0" id="_0402no_3_" >
                <g  transform="matrix(0, -1, 1, 0, 0.708998, 2.126)">
                    <g >
                        <path fill="#DCDCDC"  d="M2.2207-0.1059h-2.268c-0.156,0-0.283-0.127-0.283-0.283v-0.85c0-0.157,0.127-0.284,0.283-0.284h2.268c0.157,0,0.283,0.127,0.283,0.283v0.85C2.5047-0.2329,2.3777-0.1059,2.2207-0.1059z"/>
                        <g  transform="matrix(-2.535182e-06 -1 1 -2.535182e-06 1.9016 0.2729)">
                            <rect fill="#333333" height="1.417"  y="-1.5229" width="1.417" x="0.3787"/>
                        </g>
                    </g>
                </g>
            </g>
        </g>
        <g  transform="matrix(1, 0, 0, 1, 26.7705, 25.1395)">
            <g gorn="0.0.113.0" id="_0402no_4_" >
                <g  transform="matrix(0, 1, -1, 0, 2.126, -0.708998)">
                    <g >
                        <path fill="#DCDCDC"  d="M2.8813,2.9399h-2.268c-0.156,0-0.283-0.127-0.283-0.283v-0.85c0-0.157,0.127-0.284,0.283-0.284h2.268c0.157,0,0.283,0.127,0.283,0.283v0.85C3.1653,2.8129,3.0383,2.9399,2.8813,2.9399z"/>
                        <g  transform="matrix(2.535182e-06 1 -1 2.535182e-06 3.9791 0.4836)">
                            <rect fill="#333333" height="1.417"  y="1.5229" width="1.417" x="1.0393"/>
                        </g>
                    </g>
                </g>
            </g>
        </g>
        <g  transform="matrix(1, 0, 0, 1, 21.0105, 25.4995)">
            <g gorn="0.0.114.0" id="_0402no_5_" >
                <g  transform="matrix(0, 1, -1, 0, 2.126, -0.708998)">
                    <g >
                        <path fill="#DCDCDC"  d="M2.8813,2.9399h-2.268c-0.156,0-0.283-0.127-0.283-0.283v-0.85c0-0.157,0.127-0.284,0.283-0.284h2.268c0.157,0,0.283,0.127,0.283,0.283v0.85C3.1653,2.8129,3.0383,2.9399,2.8813,2.9399z"/>
                        <g  transform="matrix(2.535182e-06 1 -1 2.535182e-06 3.9791 0.4836)">
                            <rect fill="#333333" height="1.417"  y="1.5229" width="1.417" x="1.0393"/>
                        </g>
                    </g>
                </g>
            </g>
        </g>
        <g  transform="matrix(1, 0, 0, 1, 30.882, 49.424)">
            <g gorn="0.0.115.0" id="btn_kmr2_4.6x2.8" >
                <g  transform="matrix(0, -1, 1, 0, 2.12602, 10.63)">
                    <g >
                        <g >
                            <polygon fill="#DCDCDC" points="12.4257,1.1691 12.4257,-0.2479 11.0087,-0.2479 11.0087,-1.5229 1.0867,-1.5229 1.0867,-0.2479 -0.3303,-0.2479 -0.3303,1.1691 1.0867,1.1691 1.0867,4.2881 -0.3303,4.2881 -0.3303,5.7051 1.0867,5.7051 1.0867,6.9811 11.0087,6.9811 11.0087,5.7051 12.4257,5.7051 12.4257,4.2881 11.0087,4.2881 11.0087,1.1691 " />
                            <circle fill="#1E1E1E" r="2.48"  cy="2.7291" cx="6.0477"/>
                            <g  transform="matrix(-2.535182e-06 -1 1 -2.535182e-06 -1.7839 3.6744)">
                                <rect fill="#B4B4B4" height="0.567"  y="2.4456" width="8.504" x="-3.3068"/>
                            </g>
                            <g  transform="matrix(-2.535182e-06 -1 1 -2.535182e-06 8.4211 13.8794)">
                                <rect fill="#B4B4B4" height="0.567"  y="2.4456" width="8.504" x="6.8982"/>
                            </g>
                        </g>
                    </g>
                </g>
            </g>
        </g>
        <g  transform="matrix(1, 0, 0, 1, 10.038, 30.704)">
            <g gorn="0.0.116.0" id="btn_kmr2_4.6x2.8_1_" >
                <g  transform="matrix(0, -1, 1, 0, 2.12602, 10.63)">
                    <g >
                        <g >
                            <polygon fill="#DCDCDC" points="12.4257,1.1691 12.4257,-0.2479 11.0087,-0.2479 11.0087,-1.5229 1.0867,-1.5229 1.0867,-0.2479 -0.3303,-0.2479 -0.3303,1.1691 1.0867,1.1691 1.0867,4.2881 -0.3303,4.2881 -0.3303,5.7051 1.0867,5.7051 1.0867,6.9811 11.0087,6.9811 11.0087,5.7051 12.4257,5.7051 12.4257,4.2881 11.0087,4.2881 11.0087,1.1691 " />
                            <circle fill="#1E1E1E" r="2.48"  cy="2.7291" cx="6.0477"/>
                            <g  transform="matrix(-2.535182e-06 -1 1 -2.535182e-06 -1.7839 3.6744)">
                                <rect fill="#B4B4B4" height="0.567"  y="2.4456" width="8.504" x="-3.3068"/>
                            </g>
                            <g  transform="matrix(-2.535182e-06 -1 1 -2.535182e-06 8.4211 13.8794)">
                                <rect fill="#B4B4B4" height="0.567"  y="2.4456" width="8.504" x="6.8982"/>
                            </g>
                        </g>
                    </g>
                </g>
            </g>
        </g>
        <g  transform="matrix(1, 0, 0, 1, 22.746, 30.337)">
            <g gorn="0.0.117.0" id="sot23-5" >
                <g  transform="matrix(0, -1, 1, 0, 0.282996, 7.93706)">
                    <g >
                        <g >
                            <g  transform="matrix(-2.535182e-06 -1 1 -2.535182e-06 -1.2174 3.3909)">
                                <rect fill="#DCDCDC" height="1.134"  y="1.7371" width="7.654" x="-2.7403"/>
                            </g>
                            <g  transform="matrix(-2.535182e-06 -1 1 -2.535182e-06 4.1686 8.7769)">
                                <rect fill="#DCDCDC" height="1.134"  y="1.7371" width="7.654" x="2.6457"/>
                            </g>
                            <g  transform="matrix(-2.535182e-06 -1 1 -2.535182e-06 -0.7914 8.3509)">
                                <rect fill="#DCDCDC" height="1.134"  y="4.0041" width="3.118" x="2.2207"/>
                            </g>
                            <g  transform="matrix(-2.535182e-06 -1 1 -2.535182e-06 1.4761 6.0834)">
                                <rect fill="#303030" height="8.22"  y="-1.8064" width="4.535" x="1.5122"/>
                            </g>
                        </g>
                    </g>
                </g>
            </g>
        </g>
        <g  transform="matrix(1, 0, 0, 1, 14.329, 0.465846)">
            <g gorn="0.0.118.0" id="usb_c_cusb31-cfm2ax-01-x" >
                <g  transform="matrix(-1, 0, 0, -1, 25.342, 21.572)">
                    <g >
                        <g >
                            <rect fill="#DCDCDC" height="20.835"  y="0.4067" width="25.342" x="1.5229"/>
                            <path fill="#DCDCDC"  d="M4.9809,0.9737h-0.567v-1.304h0.567V0.9737z M5.8319-0.3303h-0.567v1.304h0.567V-0.3303z M7.2489-0.3303h-0.567v1.304h0.567V-0.3303z M8.0989-0.3303h-0.567v1.304h0.567L8.0989-0.3303z M9.5169-0.3303h-0.567v1.304h0.567V-0.3303z M10.9339-0.3303h-0.567v1.304h0.567V-0.3303z M12.3509-0.3303h-0.567v1.304h0.567V-0.3303z M13.7689-0.3303h-0.567v1.304h0.567V-0.3303z M15.1859-0.3303h-0.567v1.304h0.567V-0.3303z M16.6029-0.3303h-0.567v1.304h0.567V-0.3303z M18.0209-0.3303h-0.567v1.304h0.567V-0.3303z M19.4379-0.3303h-0.567v1.304h0.567V-0.3303z M20.8549-0.3303h-0.567v1.304h0.567V-0.3303z M21.7059-0.3303h-0.567v1.304h0.567V-0.3303z M23.1229-0.3303h-0.567v1.304h0.567V-0.3303z M23.9729-0.3303h-0.567v1.304h0.567V-0.3303z"/>
                            <rect fill="#F0F0F0" height="20.835"  y="0.4067" width="1.297" x="3.5669"/>
                            <rect fill="#BEBEBE" height="20.835"  y="0.4067" width="1.297" x="23.5229"/>
                            <path fill="#8C8C8C"  d="M26.8649,0.4067v1.998h-0.283c-0.344,0-0.624-0.279-0.624-0.624l0-0.532c0-0.344-0.279-0.624-0.624-0.624h-2.831c-0.344,0-0.624,0.279-0.624,0.624l0,2.021c0,0.344-0.279,0.624-0.624,0.624h-3.413c-0.344,0-0.624-0.279-0.624-0.624v-0.047c0-0.344,0.279-0.624,0.624-0.624h1.536c0.344,0,0.624-0.279,0.624-0.624v-0.726c0-0.344-0.279-0.624-0.624-0.624l-10.37,0c-0.344,0-0.624,0.279-0.624,0.624v0.727c0,0.344,0.279,0.624,0.624,0.624h1.536c0.344,0,0.624,0.279,0.624,0.624l0,0.046c0,0.344-0.279,0.624-0.624,0.624h-3.413c-0.344,0-0.624-0.279-0.624-0.624l0-2.021c0-0.344-0.279-0.624-0.624-0.624l-2.83,0c-0.344,0-0.624,0.279-0.624,0.624v0.533c0,0.344-0.279,0.624-0.624,0.624l-0.282,0v-1.999H26.8649z"/>
                            <rect fill="#8C8C8C" height="1.424"  y="6.2237" width="3.463" x="7.4129"/>
                            <rect fill="#8C8C8C" height="1.424"  y="6.2244" width="3.463" x="17.5115"/>
                        </g>
                    </g>
                </g>
            </g>
        </g>
        <g >
            <g  transform="matrix(4.496676e-11 -1 1 4.496676e-11 -5.6534 81.9188)">
                <rect fill="#9C8F6D" height="4.6924"  y="41.4399" width="4.6924" x="35.7865"/>
            </g>
            <g  transform="matrix(4.457863e-11 -1 1 4.457863e-11 -6.24 82.5054)">
                <rect fill="#807C73" height="2.8155"  y="42.9649" width="2.8155" x="36.725"/>
            </g>
        </g>
    </g>
</svg>
