<?xml version='1.0' encoding='utf-8'?>
<!-- Generator: Adobe Illustrator 25.2.1, SVG Export Plug-In . SVG Version: 6.00 Build 0)  -->
<svg xmlns="http://www.w3.org/2000/svg" enable-background="new 0 0 72 100.8" xml:space="preserve" gorn="0" version="1.1" xmlns:xml="http://www.w3.org/XML/1998/namespace" height="1.4in" id="Layer_1"  y="0px" width="1in" x="0px" viewBox="0 0 72 100.8">
    <desc>
        <referenceFile>QT Py RP2040 rev B_schematic.svg</referenceFile>
    </desc>
    <desc >Fritzing schematic generated by brd2svg</desc>
    <g gorn="0.1" id="schematic" >
        <rect fill="none" stroke-width="0.9" height="72"  y="14.4" stroke-linejoin="round" stroke-linecap="round" width="42.75" x="14.4" stroke="#000000"/>
        <g  transform="matrix(1 0 0 1 31.3341 41.3647)">
            <g enable-background="new    " gorn="0.1.1.0" id="label" >
                <text  y="0" font-size="2.8" x="0" font-family="'DroidSans'">Q</text>
                <text  y="0" font-size="2.8" x="2.4902" font-family="'DroidSans'">T</text>
            </g>
        </g>
        <g  transform="matrix(1 0 0 1 36.7986 41.3055)">
            <text gorn="0.1.2.0" id="label_1_"  font-size="2.8" font-family="'DroidSans'">Py</text>
        </g>
        <g  transform="matrix(1 0 0 1 30.104 46.9)">
            <text gorn="0.1.3.0" id="label_2_"  font-size="2.8" font-family="'DroidSans'">RP2040</text>
        </g>
        <g  transform="matrix(1 0 0 1 29.8011 36.2363)">
            <text gorn="0.1.4.0" id="label_3_"  font-size="2.8" font-family="'DroidSans'">Adafruit</text>
        </g>
        <line y1="28.8" fill="none" stroke-width="0.7" x1="0.35"  stroke-linejoin="round" stroke-linecap="round" x2="14.4" stroke="#787878" y2="28.8"/>
        <rect fill="none" gorn="0.1.6" height="0.7" id="connector19pin"  y="28.45" width="14.4"/>
        <rect fill="none" gorn="0.1.7" height="0.7" id="connector19terminal"  y="28.45" width="0"/>
        <g  transform="matrix(1 0 0 1 15.8 29.5)">
            <text fill="#8C8C8C" gorn="0.1.8.0" id="label19"  font-size="2.8" font-family="'DroidSans'">A0</text>
        </g>
        <line y1="36" fill="none" stroke-width="0.7" x1="0.35"  stroke-linejoin="round" stroke-linecap="round" x2="14.4" stroke="#787878" y2="36"/>
        <rect fill="none" gorn="0.1.10" height="0.7" id="connector21pin"  y="35.65" width="14.4"/>
        <rect fill="none" gorn="0.1.11" height="0.7" id="connector21terminal"  y="35.65" width="0"/>
        <g  transform="matrix(1 0 0 1 15.8 36.7)">
            <text fill="#8C8C8C" gorn="0.1.12.0" id="label21"  font-size="2.8" font-family="'DroidSans'">A1</text>
        </g>
        <line y1="43.2" fill="none" stroke-width="0.7" x1="0.35"  stroke-linejoin="round" stroke-linecap="round" x2="14.4" stroke="#787878" y2="43.2"/>
        <rect fill="none" gorn="0.1.14" height="0.7" id="connector23pin"  y="42.85" width="14.4"/>
        <rect fill="none" gorn="0.1.15" height="0.7" id="connector23terminal"  y="42.85" width="0"/>
        <g  transform="matrix(1 0 0 1 15.8 43.9)">
            <text fill="#8C8C8C" gorn="0.1.16.0" id="label23"  font-size="2.8" font-family="'DroidSans'">A2</text>
        </g>
        <line y1="50.4" fill="none" stroke-width="0.7" x1="0.35"  stroke-linejoin="round" stroke-linecap="round" x2="14.4" stroke="#787878" y2="50.4"/>
        <rect fill="none" gorn="0.1.18" height="0.7" id="connector25pin"  y="50.05" width="14.4"/>
        <rect fill="none" gorn="0.1.19" height="0.7" id="connector25terminal"  y="50.05" width="0"/>
        <g  transform="matrix(1 0 0 1 15.8 51.1)">
            <text fill="#8C8C8C" gorn="0.1.20.0" id="label25"  font-size="2.8" font-family="'DroidSans'">A3</text>
        </g>
        <line y1="57.6" fill="none" stroke-width="0.7" x1="0.35"  stroke-linejoin="round" stroke-linecap="round" x2="14.4" stroke="#787878" y2="57.6"/>
        <rect fill="none" gorn="0.1.22" height="0.7" id="connector27pin"  y="57.25" width="14.4"/>
        <rect fill="none" gorn="0.1.23" height="0.7" id="connector27terminal"  y="57.25" width="0"/>
        <g  transform="matrix(1 0 0 1 15.8 58.3)">
            <g enable-background="new    " gorn="0.1.24.0" id="label27" >
                <text fill="#8C8C8C"  y="0" font-size="2.8" x="0" font-family="'DroidSans'">S</text>
                <text fill="#8C8C8C"  y="0" font-size="2.8" x="1.8164" font-family="'DroidSans'">D</text>
                <text fill="#8C8C8C"  y="0" font-size="2.8" x="4.1768" font-family="'DroidSans'">A</text>
            </g>
        </g>
        <line y1="64.8" fill="none" stroke-width="0.7" x1="0.35"  stroke-linejoin="round" stroke-linecap="round" x2="14.4" stroke="#787878" y2="64.8"/>
        <rect fill="none" gorn="0.1.26" height="0.7" id="connector29pin"  y="64.45" width="14.4"/>
        <rect fill="none" gorn="0.1.27" height="0.7" id="connector29terminal"  y="64.45" width="0"/>
        <g  transform="matrix(1 0 0 1 15.8 65.5)">
            <text fill="#8C8C8C" gorn="0.1.28.0" id="label29"  font-size="2.8" font-family="'DroidSans'">SCL</text>
        </g>
        <line y1="72" fill="none" stroke-width="0.7" x1="0.35"  stroke-linejoin="round" stroke-linecap="round" x2="14.4" stroke="#787878" y2="72"/>
        <rect fill="none" gorn="0.1.30" height="0.7" id="connector31pin"  y="71.65" width="14.4"/>
        <rect fill="none" gorn="0.1.31" height="0.7" id="connector31terminal"  y="71.65" width="0"/>
        <g  transform="matrix(1 0 0 1 15.8 72.6998)">
            <text fill="#8C8C8C" gorn="0.1.32.0" id="label31"  font-size="2.8" font-family="'DroidSans'">TX</text>
        </g>
        <line y1="28.8" fill="none" stroke-width="0.7" x1="57.25"  stroke-linejoin="round" stroke-linecap="round" x2="71.65" stroke="#787878" y2="28.8"/>
        <rect fill="none" gorn="0.1.34" height="0.7" id="connector39pin"  y="28.45" width="14.4" x="57.6"/>
        <rect fill="none" gorn="0.1.35" height="0.7" id="connector39terminal"  y="28.45" width="0" x="72"/>
        <g  transform="matrix(1 0 0 1 47.5542 29.5)">
            <text fill="#8C8C8C" gorn="0.1.36.0" id="label39"  font-size="2.8" font-family="'DroidSans'">MOSI</text>
        </g>
        <line y1="36" fill="none" stroke-width="0.7" x1="57.25"  stroke-linejoin="round" stroke-linecap="round" x2="71.65" stroke="#787878" y2="36"/>
        <rect fill="none" gorn="0.1.38" height="0.7" id="connector37pin"  y="35.65" width="14.4" x="57.6"/>
        <rect fill="none" gorn="0.1.39" height="0.7" id="connector37terminal"  y="35.65" width="0" x="72"/>
        <g  transform="matrix(1 0 0 1 47.5542 36.7)">
            <text fill="#8C8C8C" gorn="0.1.40.0" id="label37"  font-size="2.8" font-family="'DroidSans'">MISO</text>
        </g>
        <line y1="43.2" fill="none" stroke-width="0.7" x1="57.25"  stroke-linejoin="round" stroke-linecap="round" x2="71.65" stroke="#787878" y2="43.2"/>
        <rect fill="none" gorn="0.1.42" height="0.7" id="connector35pin"  y="42.85" width="14.4" x="57.6"/>
        <rect fill="none" gorn="0.1.43" height="0.7" id="connector35terminal"  y="42.85" width="0" x="72"/>
        <g  transform="matrix(1 0 0 1 50.2459 43.9)">
            <text fill="#8C8C8C" gorn="0.1.44.0" id="label35"  font-size="2.8" font-family="'DroidSans'">SCK</text>
        </g>
        <line y1="50.4" fill="none" stroke-width="0.7" x1="57.25"  stroke-linejoin="round" stroke-linecap="round" x2="71.65" stroke="#787878" y2="50.4"/>
        <rect fill="none" gorn="0.1.46" height="0.7" id="connector33pin"  y="50.05" width="14.4" x="57.6"/>
        <rect fill="none" gorn="0.1.47" height="0.7" id="connector33terminal"  y="50.05" width="0" x="72"/>
        <g  transform="matrix(1 0 0 1 52.2215 51.1)">
            <text fill="#8C8C8C" gorn="0.1.48.0" id="label33"  font-size="2.8" font-family="'DroidSans'">RX</text>
        </g>
        <line y1="57.6" fill="none" stroke-width="0.7" x1="57.25"  stroke-linejoin="round" stroke-linecap="round" x2="71.65" stroke="#787878" y2="57.6"/>
        <rect fill="none" gorn="0.1.50" height="0.7" id="connector13pin"  y="57.25" width="14.4" x="57.6"/>
        <rect fill="none" gorn="0.1.51" height="0.7" id="connector13terminal"  y="57.25" width="0" x="72"/>
        <g  transform="matrix(1 0 0 1 47.9678 58.3)">
            <g enable-background="new    " gorn="0.1.52.0" id="label13" >
                <text fill="#8C8C8C"  y="0" font-size="2.8" x="0" font-family="'DroidSans'">S</text>
                <text fill="#8C8C8C"  y="0" font-size="2.8" x="1.8164" font-family="'DroidSans'">D</text>
                <text fill="#8C8C8C"  y="0" font-size="2.8" x="4.1768" font-family="'DroidSans'">A1</text>
            </g>
        </g>
        <line y1="64.8" fill="none" stroke-width="0.7" x1="57.25"  stroke-linejoin="round" stroke-linecap="round" x2="71.65" stroke="#787878" y2="64.8"/>
        <rect fill="none" gorn="0.1.54" height="0.7" id="connector14pin"  y="64.45" width="14.4" x="57.6"/>
        <rect fill="none" gorn="0.1.55" height="0.7" id="connector14terminal"  y="64.45" width="0" x="72"/>
        <g  transform="matrix(1 0 0 1 48.6258 65.5)">
            <text fill="#8C8C8C" gorn="0.1.56.0" id="label14"  font-size="2.8" font-family="'DroidSans'">SCL1</text>
        </g>
        <line y1="0.35" fill="none" stroke-width="0.7" x1="36"  stroke-linejoin="round" stroke-linecap="round" x2="36" stroke="#787878" y2="14.4"/>
        <rect fill="none" gorn="0.1.58" height="14.4" id="connector12pin"  width="0.7" x="35.65"/>
        <polygon fill="none" gorn="0.1.59" points="35.65,0 36.35,0 36.35,0 " id="connector12terminal" />
        <g  transform="matrix(1, 0, 0, 1, 37.4, 16)">
            <g >
                <g  transform="rotate(270)">
                    <g >
                        <g  transform="matrix(1 0 0 1 -7.7705 0)">
                            <text fill="#8C8C8C" gorn="0.1.60.0.0.0.0.0" id="label12"  font-size="2.8" font-family="'DroidSans'">+3V3</text>
                        </g>
                    </g>
                </g>
            </g>
        </g>
        <line y1="0.35" fill="none" stroke-width="0.7" x1="43.2"  stroke-linejoin="round" stroke-linecap="round" x2="43.2" stroke="#787878" y2="14.4"/>
        <rect fill="none" gorn="0.1.62" height="14.4" id="connector45pin"  width="0.7" x="42.85"/>
        <polygon fill="none" gorn="0.1.63" points="42.85,0 43.55,0 43.55,0 " id="connector45terminal" />
        <g  transform="matrix(1, 0, 0, 1, 44.6, 16)">
            <g >
                <g  transform="rotate(270)">
                    <g >
                        <g  transform="matrix(1 0 0 1 -5.8428 0)">
                            <text fill="#8C8C8C" gorn="0.1.64.0.0.0.0.0" id="label45"  font-size="2.8" font-family="'DroidSans'">+5V</text>
                        </g>
                    </g>
                </g>
            </g>
        </g>
        <line y1="86.4" fill="none" stroke-width="0.7" x1="36"  stroke-linejoin="round" stroke-linecap="round" x2="36" stroke="#787878" y2="100.45"/>
        <rect fill="none" gorn="0.1.66" height="14.4" id="connector11pin"  y="86.4" width="0.7" x="35.65"/>
        <polygon fill="none" gorn="0.1.67" points="35.65,100.8 36.35,100.8 36.35,100.8 " id="connector11terminal" />
        <g  transform="matrix(1, 0, 0, 1, 37.4, 84.8002)">
            <g >
                <g  transform="rotate(270)">
                    <g >
                        <g  transform="matrix(1 0 0 1 -0.0006 0)">
                            <text fill="#8C8C8C" gorn="0.1.68.0.0.0.0.0" id="label11"  font-size="2.8" font-family="'DroidSans'">GND</text>
                        </g>
                    </g>
                </g>
            </g>
        </g>
        <rect fill="none" gorn="0.1.69" height="14.4" id="connector41pin"  width="0.7" x="35.65"/>
        <polygon fill="none" gorn="0.1.70" points="35.65,0 36.35,0 36.35,0 " id="connector41terminal" />
        <rect fill="none" gorn="0.1.71" height="14.4" id="connector43pin"  y="86.4" width="0.7" x="35.65"/>
        <polygon fill="none" gorn="0.1.72" points="35.65,100.8 36.35,100.8 36.35,100.8 " id="connector43terminal" />
    </g>
</svg>
