<?xml version='1.0' encoding='UTF-8' standalone='no'?>
<!-- Created with Fritzing (http://www.fritzing.org/) -->
<svg xmlns="http://www.w3.org/2000/svg"  version="1.2" y="0in" viewBox="0 0 72 64.8" width="1in" height="0.9in" baseProfile="tiny" x="0in">
    <desc>
        <referenceFile>Adafruit TLV493D_schematic.svg</referenceFile>
    </desc>
    <desc >Fritzing schematic generated by brd2svg</desc>
    <g  gorn="0.1" id="schematic">
        <rect  y="14.4" stroke-linecap="round" fill="none" stroke-linejoin="round" width="42.75" stroke="#000000" height="36" stroke-width="0.9" x="14.4"/>
        <text  y="28.8" gorn="0.1.1" font-family="'Droid Sans'" id="label" fill="#000000" font-size="3.5" text-anchor="middle" stroke="none" x="36">Adafruit</text>
        <text  y="32.3" gorn="0.1.2" font-family="'Droid Sans'" id="label" fill="#000000" font-size="3.5" text-anchor="middle" stroke="none" x="36">TLV493D</text>
        <line  stroke-linecap="round" fill="none" stroke-linejoin="round" y1="28.8" stroke="#787878" y2="28.8" x1="0.349999" x2="14.4" stroke-width="0.699998"/>
        <rect  y="28.45" gorn="0.1.4" id="connector14pin" fill="none" width="14.4" height="0.699998" stroke-width="0" connectorName="SCL" x="0"/>
        <rect  y="28.45" gorn="0.1.5" id="connector14terminal" fill="none" width="0" height="0.699998" stroke-width="0" x="0"/>
        <text  y="29.5" gorn="0.1.6" font-family="'Droid Sans'" id="label14" fill="#8c8c8c" font-size="3.5" text-anchor="start" stroke="none" x="15.8">SCL</text>
        <line  stroke-linecap="round" fill="none" stroke-linejoin="round" y1="28.8" stroke="#787878" y2="28.8" x1="57.25" x2="71.65" stroke-width="0.699998"/>
        <rect  y="28.45" gorn="0.1.8" connectorname="SDA" id="connector13pin" fill="none" width="14.4" height="0.699998" stroke-width="0" x="57.6"/>
        <rect  y="28.45" gorn="0.1.9" id="connector13terminal" fill="none" width="0" height="0.699998" stroke-width="0" x="72"/>
        <text  y="29.5" gorn="0.1.10" font-family="'Droid Sans'" id="label13" fill="#8c8c8c" font-size="3.5" text-anchor="end" stroke="none" x="56.2">SDA</text>
        <line  stroke-linecap="round" fill="none" stroke-linejoin="round" y1="0.349999" stroke="#787878" y2="14.4" x1="36" x2="36" stroke-width="0.699998"/>
        <rect  y="0" gorn="0.1.12" connectorname="VCC" id="connector12pin" fill="none" width="0.699998" height="14.4" stroke-width="0" x="35.65"/>
        <rect  y="0" gorn="0.1.13" id="connector12terminal" fill="none" width="0.699998" height="0" stroke-width="0" x="35.65"/>
        <g  transform="matrix(1, 0, 0, 1, 37.4, 16)">
            <g >
                <g  transform="rotate(270)">
                    <g >
                        <text  y="0" gorn="0.1.14.0.0.0.0" font-family="'Droid Sans'" id="label12" fill="#8c8c8c" font-size="3.5" text-anchor="end" stroke="none" x="0">VCC</text>
                    </g>
                </g>
            </g>
        </g>
        <line  stroke-linecap="round" fill="none" stroke-linejoin="round" y1="0.349999" stroke="#787878" y2="14.4" x1="43.2" x2="43.2" stroke-width="0.699998"/>
        <rect  y="0" gorn="0.1.16" connectorname="3.3V" id="connector34pin" fill="none" width="0.699998" height="14.4" stroke-width="0" x="42.85"/>
        <rect y="-0.0144" id="connector34terminal" fill="none" stroke="none" width="0.0014" stroke-width="0" height="0.0288" x="43.1993"/>
        <rect  y="0" gorn="0.1.17" id="" fill="none" width="0.699998" height="0" stroke-width="0" x="42.85"/>
        <g  transform="matrix(1, 0, 0, 1, 44.6, 16)">
            <g >
                <g  transform="rotate(270)">
                    <g >
                        <text  y="0" gorn="0.1.18.0.0.0.0" font-family="'Droid Sans'" id="label34" fill="#8c8c8c" font-size="3.5" text-anchor="end" stroke="none" x="0">3.3V</text>
                    </g>
                </g>
            </g>
        </g>
        <line  stroke-linecap="round" fill="none" stroke-linejoin="round" y1="50.4" stroke="#787878" y2="64.45" x1="36" x2="36" stroke-width="0.699998"/>
        <rect  y="50.4" gorn="0.1.20" connectorname="GND" id="connector11pin" fill="none" width="0.699998" height="14.4" stroke-width="0" x="35.65"/>
        <rect  y="64.8" gorn="0.1.21" id="connector11terminal" fill="none" width="0.699998" height="0" stroke-width="0" x="35.65"/>
        <g  transform="matrix(1, 0, 0, 1, 37.4, 48.8)">
            <g >
                <g  transform="rotate(270)">
                    <g >
                        <text  y="0" gorn="0.1.22.0.0.0.0" font-family="'Droid Sans'" id="label11" fill="#8c8c8c" font-size="3.5" text-anchor="start" stroke="none" x="0">GND</text>
                    </g>
                </g>
            </g>
        </g>
        <rect  y="0" gorn="0.1.23" connectorname="VCC" id="connector18pin" fill="none" width="0.699998" height="14.4" stroke-width="0" x="35.65"/>
        <rect  y="0" gorn="0.1.24" id="connector18terminal" fill="none" width="0.699998" height="0" stroke-width="0" x="35.65"/>
        <rect  y="0" gorn="0.1.25" connectorname="VCC" id="connector33pin" fill="none" width="0.699998" height="14.4" stroke-width="0" x="35.65"/>
        <rect y="-0.0144" id="connector33terminal" fill="none" stroke="none" width="0.0014" stroke-width="0" height="0.0288" x="35.9993"/>
        <rect  y="0" gorn="0.1.26" id="" fill="none" width="0.699998" height="0" stroke-width="0" x="35.65"/>
        <rect  y="50.4" gorn="0.1.27" connectorname="GND" id="connector35pin" fill="none" width="0.699998" height="14.4" stroke-width="0" x="35.65"/>
        <rect  y="64.8" gorn="0.1.28" id="connector35terminal" fill="none" width="0.699998" height="0" stroke-width="0" x="35.65"/>
        <rect  y="50.4" gorn="0.1.29" connectorname="GND" id="connector17pin" fill="none" width="0.699998" height="14.4" stroke-width="0" x="35.65"/>
        <rect y="64.7856" id="connector17terminal" fill="none" stroke="none" width="0.0014" stroke-width="0" height="0.0288" x="35.9993"/>
        <rect  y="64.8" gorn="0.1.30" id="" fill="none" width="0.699998" height="0" stroke-width="0" x="35.65"/>
        <rect  y="28.45" gorn="0.1.31" id="connector36pin" fill="none" width="14.4" height="0.699998" stroke-width="0" connectorName="SCL" x="0"/>
        <rect  y="28.45" gorn="0.1.32" id="connector36terminal" fill="none" width="0" height="0.699998" stroke-width="0" x="0"/>
        <rect  y="28.45" gorn="0.1.33" id="connector20pin" fill="none" width="14.4" height="0.699998" stroke-width="0" connectorName="SCL" x="0"/>
        <rect y="28.7993" id="connector20terminal" fill="none" stroke="none" width="0.0288" stroke-width="0" height="0.0014" x="-0.0144"/>
        <rect  y="28.45" gorn="0.1.34" id="" fill="none" width="0" height="0.699998" stroke-width="0" x="0"/>
        <rect  y="28.45" gorn="0.1.35" connectorname="SDA" id="connector37pin" fill="none" width="14.4" height="0.699998" stroke-width="0" x="57.6"/>
        <rect  y="28.45" gorn="0.1.36" id="connector37terminal" fill="none" width="0" height="0.699998" stroke-width="0" x="72"/>
        <rect  y="28.45" gorn="0.1.37" connectorname="SDA" id="connector19pin" fill="none" width="14.4" height="0.699998" stroke-width="0" x="57.6"/>
        <rect y="28.7993" id="connector19terminal" fill="none" stroke="none" width="0.0288" stroke-width="0" height="0.0014" x="71.9856"/>
        <rect  y="28.45" gorn="0.1.38" id="" fill="none" width="0" height="0.699998" stroke-width="0" x="72"/>
    </g>
</svg>
