<?xml version='1.0' encoding='UTF-8' standalone='no'?>
<!-- Created with Fritzing (http://www.fritzing.org/) -->
<svg xmlns="http://www.w3.org/2000/svg" baseProfile="tiny" version="1.2" height="0.8555in"  y="0in" width="0.75in" x="0in" viewBox="0 0 54 61.596">
    <desc>
        <referenceFile>QT Py RP2040 rev B_pcb.svg</referenceFile>
    </desc>
    <desc >Fritzing footprint generated by brd2svg</desc>
    <g gorn="0.1" id="silkscreen" >
        <path fill="none" stroke-width="0.576"  d="M51.9312,10.3094L51.9312,54.1753A6.912,6.912,0,0,1,44.808,61.308L9.19202,61.308A6.912,6.912,0,0,1,2.0688,54.1753L2.0688,10.3094A6.912,6.912,0,0,1,9.19202,3.17673L44.808,3.17673A6.912,6.912,0,0,1,51.9312,10.3094M18.1746,17.8016a0.63326,0.63326,0,1,0,1.26652,0,0.63326,0.63326,0,1,0,-1.26652,0zM34.5588,17.8016a0.63326,0.63326,0,1,0,1.26652,0,0.63326,0.63326,0,1,0,-1.26652,0z" stroke="white"/>
        <g >
            <title >element:CONN1</title>
            <g >
                <title >package:JST_SH4_SKINNY</title>
                <line y1="55.9222" stroke-width="0.432" x1="13.1681"  stroke-linecap="round" x2="13.1681" stroke="white" y2="48.5521"/>
                <line y1="48.5521" stroke-width="0.432" x1="13.1681"  stroke-linecap="round" x2="16.2862" stroke="white" y2="48.5521"/>
                <line y1="48.5521" stroke-width="0.432" x1="27.0578"  stroke-linecap="round" x2="30.4594" stroke="white" y2="48.5521"/>
                <line y1="48.5521" stroke-width="0.432" x1="30.4594"  stroke-linecap="round" x2="30.4594" stroke="white" y2="55.9222"/>
                <line y1="60.7411" stroke-width="0.432" x1="15.7193"  stroke-linecap="round" x2="27.6247" stroke="white" y2="60.7411"/>
            </g>
        </g>
        <g >
            <title >element:IC2</title>
            <g >
                <title >package:QFN56_7MM_REDUCEDEPAD</title>
            </g>
        </g>
        <g >
            <title >element:JP1</title>
            <g >
                <title >package:1X07_CASTEL</title>
            </g>
        </g>
        <g >
            <title >element:JP3</title>
            <g >
                <title >package:1X07_CASTEL</title>
            </g>
        </g>
        <g >
            <title >element:U$1</title>
            <g >
                <title >package:QTPICO_BOT</title>
            </g>
        </g>
        <g >
            <title >element:U$2</title>
            <g >
                <title >package:QTPICO_TOP</title>
            </g>
        </g>
        <g >
            <title >element:X2</title>
            <g >
                <title >package:USB_C_CUSB31-CFM2AX-01-X</title>
                <line y1="11.3386" stroke-width="0.288" x1="39.6708"  stroke-linecap="round" x2="39.6708" stroke="white" y2="15.1654"/>
                <line y1="15.1654" stroke-width="0.288" x1="14.3292"  stroke-linecap="round" x2="14.3292" stroke="white" y2="11.3386"/>
                <line y1="0" stroke-width="0.288" x1="14.3292"  stroke-linecap="round" x2="39.6708" stroke="white" y2="0"/>
                <line y1="0" stroke-width="0.288" x1="39.6708"  stroke-linecap="round" x2="39.6708" stroke="white" y2="3.82677"/>
                <line y1="3.82677" stroke-width="0.288" x1="14.3292"  stroke-linecap="round" x2="14.3292" stroke="white" y2="0"/>
            </g>
        </g>
        <line y1="54.576" fill="none" stroke-width="0.576" x1="0.288"  fill-opacity="1" x2="1.8" stroke="white" y2="54.576"/>
        <line y1="7.056" fill="none" stroke-width="0.576" x1="0.288"  fill-opacity="1" x2="1.8" stroke="white" y2="7.056"/>
        <line y1="54.576" fill="none" stroke-width="0.576" x1="0.288"  fill-opacity="1" x2="0.288" stroke="white" y2="7.056"/>
        <line y1="57.456" fill="none" stroke-width="0.576" x1="52.2"  fill-opacity="1" x2="53.712" stroke="white" y2="57.456"/>
        <line y1="9.936" fill="none" stroke-width="0.576" x1="52.2"  fill-opacity="1" x2="53.712" stroke="white" y2="9.936"/>
        <line y1="57.456" fill="none" stroke-width="0.576" x1="53.712"  fill-opacity="1" x2="53.712" stroke="white" y2="9.936"/>
        <line y1="0.288" fill="none" stroke-width="0.576" x1="13.356"  fill-opacity="1" x2="40.68" stroke="white" y2="0.288"/>
        <line y1="2.916" fill="none" stroke-width="0.576" x1="13.356"  fill-opacity="1" x2="13.356" stroke="white" y2="0.288"/>
        <line y1="2.916" fill="none" stroke-width="0.576" x1="40.68"  fill-opacity="1" x2="40.68" stroke="white" y2="0.288"/>
    </g>
    <g gorn="0.2" id="copper1" >
        <g gorn="0.2.0" id="copper0" >
            <g  transform="matrix(0, -1, 1, 0, -30.2817, 65.1218)">
                <g >
                    <rect fill="#F7BD13" gorn="0.2.0.0.0.0" stroke-width="0" height="1.41732" id="connector11pad"  y="46.993" width="4.3937" x="15.2232" stroke="none"/>
                </g>
            </g>
            <g  transform="matrix(0, -1, 1, 0, -27.447, 67.9564)">
                <g >
                    <rect fill="#F7BD13" gorn="0.2.0.1.0.0" stroke-width="0" height="1.41732" id="connector12pad"  y="46.993" width="4.3937" x="18.0578" stroke="none"/>
                </g>
            </g>
            <g  transform="matrix(0, -1, 1, 0, -24.6124, 70.791)">
                <g >
                    <rect fill="#F7BD13" gorn="0.2.0.2.0.0" stroke-width="0" height="1.41732" id="connector13pad"  y="46.993" width="4.3937" x="20.8925" stroke="none"/>
                </g>
            </g>
            <g  transform="matrix(0, -1, 1, 0, -21.7778, 73.6258)">
                <g >
                    <rect fill="#F7BD13" gorn="0.2.0.3.0.0" stroke-width="0" height="1.41732" id="connector14pad"  y="46.993" width="4.3937" x="23.7271" stroke="none"/>
                </g>
            </g>
            <circle connectorname="M4" fill="none" r="1.21039" gorn="0.2.0.4" stroke-width="0.72" id="connector90pad"  cy="7.37006" stroke="#F7BD13" cx="14.7543"/>
            <path fill="#F7BD13" stroke-width="0"  d="m13.5439,4.58618,2.42078,0,0,5.56781,-2.42078,0,0,-5.56781M13.5439,7.37006a1.21039,1.21039,0,1,0,2.42078,0,1.21039,1.21039,0,1,0,-2.42078,0z" stroke="none"/>
            <circle connectorname="A0" fill="none" r="1.96866" gorn="0.2.0.6" stroke-width="1.10268" id="connector19pad"  cy="10.656" stroke="#F7BD13" cx="5.4"/>
            <circle connectorname="A1" fill="none" r="1.96866" gorn="0.2.0.7" stroke-width="1.10268" id="connector21pad"  cy="17.856" stroke="#F7BD13" cx="5.4"/>
            <circle connectorname="A2" fill="none" r="1.96866" gorn="0.2.0.8" stroke-width="1.10268" id="connector23pad"  cy="25.056" stroke="#F7BD13" cx="5.4"/>
            <circle connectorname="A3" fill="none" r="1.96866" gorn="0.2.0.9" stroke-width="1.10268" id="connector25pad"  cy="32.256" stroke="#F7BD13" cx="5.4"/>
            <circle connectorname="M2" fill="none" r="1.21039" gorn="0.2.0.10" stroke-width="0.72" id="connector88pad"  cy="19.2189" stroke="#F7BD13" cx="14.7543"/>
            <path fill="#F7BD13" stroke-width="0"  d="m13.5439,16.435,2.42078,0,0,5.56781,-2.42078,0,0,-5.56781M13.5439,19.2189a1.21039,1.21039,0,1,0,2.42078,0,1.21039,1.21039,0,1,0,-2.42078,0z" stroke="none"/>
            <circle connectorname="SDA" fill="none" r="1.96866" gorn="0.2.0.12" stroke-width="1.10268" id="connector27pad"  cy="39.456" stroke="#F7BD13" cx="5.4"/>
            <circle connectorname="SCL" fill="none" r="1.96866" gorn="0.2.0.13" stroke-width="1.10268" id="connector29pad"  cy="46.656" stroke="#F7BD13" cx="5.4"/>
            <circle connectorname="TX" fill="none" r="1.96866" gorn="0.2.0.14" stroke-width="1.10268" id="connector31pad"  cy="53.856" stroke="#F7BD13" cx="5.4"/>
            <circle connectorname="RX" fill="none" r="1.96866" gorn="0.2.0.15" stroke-width="1.10268" id="connector33pad"  cy="53.856" stroke="#F7BD13" cx="48.6"/>
            <circle connectorname="SCK" fill="none" r="1.96866" gorn="0.2.0.16" stroke-width="1.10268" id="connector35pad"  cy="46.656" stroke="#F7BD13" cx="48.6"/>
            <circle connectorname="MISO" fill="none" r="1.96866" gorn="0.2.0.17" stroke-width="1.10268" id="connector37pad"  cy="39.456" stroke="#F7BD13" cx="48.6"/>
            <circle connectorname="MOSI" fill="none" r="1.96866" gorn="0.2.0.18" stroke-width="1.10268" id="connector39pad"  cy="32.256" stroke="#F7BD13" cx="48.6"/>
            <circle connectorname="+3V3" fill="none" r="1.96866" gorn="0.2.0.19" stroke-width="1.10268" id="connector41pad"  cy="25.056" stroke="#F7BD13" cx="48.6"/>
            <circle connectorname="GND" fill="none" r="1.96866" gorn="0.2.0.20" stroke-width="1.10268" id="connector43pad"  cy="17.856" stroke="#F7BD13" cx="48.6"/>
            <circle connectorname="+5V" fill="none" r="1.96866" gorn="0.2.0.21" stroke-width="1.10268" id="connector45pad"  cy="10.656" stroke="#F7BD13" cx="48.6"/>
            <circle connectorname="M1" fill="none" r="1.21039" gorn="0.2.0.22" stroke-width="0.72" id="connector87pad"  cy="19.2189" stroke="#F7BD13" cx="39.2457"/>
            <path fill="#F7BD13" stroke-width="0"  d="m38.0353,16.435,2.42078,0,0,5.56781,-2.42078,0,0,-5.56781M38.0353,19.2189a1.21039,1.21039,0,1,0,2.42078,0,1.21039,1.21039,0,1,0,-2.42078,0z" stroke="none"/>
            <circle connectorname="M3" fill="none" r="1.21039" gorn="0.2.0.24" stroke-width="0.72" id="connector89pad"  cy="7.37006" stroke="#F7BD13" cx="39.2457"/>
            <path fill="#F7BD13" stroke-width="0"  d="m38.0353,4.58618,2.42078,0,0,5.56781,-2.42078,0,0,-5.56781M38.0353,7.37006a1.21039,1.21039,0,1,0,2.42078,0,1.21039,1.21039,0,1,0,-2.42078,0z" stroke="none"/>
        </g>
    </g>
</svg>
